<mxfile host="Electron" modified="2024-08-26T20:54:06.266Z" agent="Mozilla/5.0 (Windows NT 10.0; Win64; x64) AppleWebKit/537.36 (KHTML, like Gecko) draw.io/22.1.16 Chrome/120.0.6099.109 Electron/28.1.0 Safari/537.36" etag="0ObehQxUOTZNbSHJmPT1" version="22.1.16" type="device">
  <diagram name="Page-1" id="L_54ul5Kz9JvYNKkmojB">
    <mxGraphModel dx="1434" dy="956" grid="1" gridSize="10" guides="1" tooltips="1" connect="1" arrows="1" fold="1" page="1" pageScale="1" pageWidth="800" pageHeight="420" math="0" shadow="0">
      <root>
        <mxCell id="0" />
        <mxCell id="1" parent="0" />
        <mxCell id="0axwFl1xxEk5szE2pngX-2" value="" style="whiteSpace=wrap;html=1;aspect=fixed;fillColor=#7EA6E0;" vertex="1" parent="1">
          <mxGeometry x="210" y="10" width="50" height="50" as="geometry" />
        </mxCell>
        <mxCell id="0axwFl1xxEk5szE2pngX-3" value="" style="whiteSpace=wrap;html=1;aspect=fixed;fillColor=#D4E1F5;" vertex="1" parent="1">
          <mxGeometry x="260" y="10" width="50" height="50" as="geometry" />
        </mxCell>
        <mxCell id="0axwFl1xxEk5szE2pngX-4" value="" style="whiteSpace=wrap;html=1;aspect=fixed;fillColor=#7EA6E0;" vertex="1" parent="1">
          <mxGeometry x="310" y="10" width="50" height="50" as="geometry" />
        </mxCell>
        <mxCell id="0axwFl1xxEk5szE2pngX-5" value="" style="whiteSpace=wrap;html=1;aspect=fixed;fillColor=#D4E1F5;" vertex="1" parent="1">
          <mxGeometry x="360" y="10" width="50" height="50" as="geometry" />
        </mxCell>
        <mxCell id="0axwFl1xxEk5szE2pngX-6" value="" style="whiteSpace=wrap;html=1;aspect=fixed;fillColor=#7EA6E0;" vertex="1" parent="1">
          <mxGeometry x="410" y="10" width="50" height="50" as="geometry" />
        </mxCell>
        <mxCell id="0axwFl1xxEk5szE2pngX-7" value="" style="whiteSpace=wrap;html=1;aspect=fixed;fillColor=#D4E1F5;" vertex="1" parent="1">
          <mxGeometry x="460" y="10" width="50" height="50" as="geometry" />
        </mxCell>
        <mxCell id="0axwFl1xxEk5szE2pngX-8" value="" style="whiteSpace=wrap;html=1;aspect=fixed;fillColor=#7EA6E0;" vertex="1" parent="1">
          <mxGeometry x="510" y="10" width="50" height="50" as="geometry" />
        </mxCell>
        <mxCell id="0axwFl1xxEk5szE2pngX-9" value="" style="whiteSpace=wrap;html=1;aspect=fixed;fillColor=#D4E1F5;" vertex="1" parent="1">
          <mxGeometry x="560" y="10" width="50" height="50" as="geometry" />
        </mxCell>
        <mxCell id="0axwFl1xxEk5szE2pngX-10" value="" style="whiteSpace=wrap;html=1;aspect=fixed;fillColor=#7EA6E0;" vertex="1" parent="1">
          <mxGeometry x="560" y="60" width="50" height="50" as="geometry" />
        </mxCell>
        <mxCell id="0axwFl1xxEk5szE2pngX-11" value="" style="whiteSpace=wrap;html=1;aspect=fixed;fillColor=#D4E1F5;" vertex="1" parent="1">
          <mxGeometry x="210" y="60" width="50" height="50" as="geometry" />
        </mxCell>
        <mxCell id="0axwFl1xxEk5szE2pngX-12" value="" style="whiteSpace=wrap;html=1;aspect=fixed;fillColor=#7EA6E0;" vertex="1" parent="1">
          <mxGeometry x="260" y="60" width="50" height="50" as="geometry" />
        </mxCell>
        <mxCell id="0axwFl1xxEk5szE2pngX-13" value="" style="whiteSpace=wrap;html=1;aspect=fixed;fillColor=#D4E1F5;" vertex="1" parent="1">
          <mxGeometry x="310" y="60" width="50" height="50" as="geometry" />
        </mxCell>
        <mxCell id="0axwFl1xxEk5szE2pngX-14" value="" style="whiteSpace=wrap;html=1;aspect=fixed;fillColor=#7EA6E0;" vertex="1" parent="1">
          <mxGeometry x="360" y="60" width="50" height="50" as="geometry" />
        </mxCell>
        <mxCell id="0axwFl1xxEk5szE2pngX-15" value="" style="whiteSpace=wrap;html=1;aspect=fixed;fillColor=#D4E1F5;" vertex="1" parent="1">
          <mxGeometry x="410" y="60" width="50" height="50" as="geometry" />
        </mxCell>
        <mxCell id="0axwFl1xxEk5szE2pngX-16" value="" style="whiteSpace=wrap;html=1;aspect=fixed;fillColor=#7EA6E0;" vertex="1" parent="1">
          <mxGeometry x="460" y="60" width="50" height="50" as="geometry" />
        </mxCell>
        <mxCell id="0axwFl1xxEk5szE2pngX-17" value="" style="whiteSpace=wrap;html=1;aspect=fixed;fillColor=#D4E1F5;" vertex="1" parent="1">
          <mxGeometry x="510" y="60" width="50" height="50" as="geometry" />
        </mxCell>
        <mxCell id="0axwFl1xxEk5szE2pngX-34" value="" style="whiteSpace=wrap;html=1;aspect=fixed;fillColor=#7EA6E0;" vertex="1" parent="1">
          <mxGeometry x="210" y="110" width="50" height="50" as="geometry" />
        </mxCell>
        <mxCell id="0axwFl1xxEk5szE2pngX-35" value="" style="whiteSpace=wrap;html=1;aspect=fixed;fillColor=#D4E1F5;" vertex="1" parent="1">
          <mxGeometry x="260" y="110" width="50" height="50" as="geometry" />
        </mxCell>
        <mxCell id="0axwFl1xxEk5szE2pngX-36" value="" style="whiteSpace=wrap;html=1;aspect=fixed;fillColor=#7EA6E0;" vertex="1" parent="1">
          <mxGeometry x="310" y="110" width="50" height="50" as="geometry" />
        </mxCell>
        <mxCell id="0axwFl1xxEk5szE2pngX-37" value="" style="whiteSpace=wrap;html=1;aspect=fixed;fillColor=#D4E1F5;" vertex="1" parent="1">
          <mxGeometry x="360" y="110" width="50" height="50" as="geometry" />
        </mxCell>
        <mxCell id="0axwFl1xxEk5szE2pngX-38" value="" style="whiteSpace=wrap;html=1;aspect=fixed;fillColor=#7EA6E0;" vertex="1" parent="1">
          <mxGeometry x="410" y="110" width="50" height="50" as="geometry" />
        </mxCell>
        <mxCell id="0axwFl1xxEk5szE2pngX-39" value="" style="whiteSpace=wrap;html=1;aspect=fixed;fillColor=#D4E1F5;" vertex="1" parent="1">
          <mxGeometry x="460" y="110" width="50" height="50" as="geometry" />
        </mxCell>
        <mxCell id="0axwFl1xxEk5szE2pngX-40" value="" style="whiteSpace=wrap;html=1;aspect=fixed;fillColor=#7EA6E0;" vertex="1" parent="1">
          <mxGeometry x="510" y="110" width="50" height="50" as="geometry" />
        </mxCell>
        <mxCell id="0axwFl1xxEk5szE2pngX-41" value="" style="whiteSpace=wrap;html=1;aspect=fixed;fillColor=#D4E1F5;" vertex="1" parent="1">
          <mxGeometry x="560" y="110" width="50" height="50" as="geometry" />
        </mxCell>
        <mxCell id="0axwFl1xxEk5szE2pngX-42" value="" style="whiteSpace=wrap;html=1;aspect=fixed;fillColor=#7EA6E0;" vertex="1" parent="1">
          <mxGeometry x="560" y="160" width="50" height="50" as="geometry" />
        </mxCell>
        <mxCell id="0axwFl1xxEk5szE2pngX-43" value="" style="whiteSpace=wrap;html=1;aspect=fixed;fillColor=#D4E1F5;" vertex="1" parent="1">
          <mxGeometry x="210" y="160" width="50" height="50" as="geometry" />
        </mxCell>
        <mxCell id="0axwFl1xxEk5szE2pngX-44" value="" style="whiteSpace=wrap;html=1;aspect=fixed;fillColor=#7EA6E0;" vertex="1" parent="1">
          <mxGeometry x="260" y="160" width="50" height="50" as="geometry" />
        </mxCell>
        <mxCell id="0axwFl1xxEk5szE2pngX-45" value="" style="whiteSpace=wrap;html=1;aspect=fixed;fillColor=#D4E1F5;" vertex="1" parent="1">
          <mxGeometry x="310" y="160" width="50" height="50" as="geometry" />
        </mxCell>
        <mxCell id="0axwFl1xxEk5szE2pngX-46" value="" style="whiteSpace=wrap;html=1;aspect=fixed;fillColor=#7EA6E0;" vertex="1" parent="1">
          <mxGeometry x="360" y="160" width="50" height="50" as="geometry" />
        </mxCell>
        <mxCell id="0axwFl1xxEk5szE2pngX-47" value="" style="whiteSpace=wrap;html=1;aspect=fixed;fillColor=#D4E1F5;" vertex="1" parent="1">
          <mxGeometry x="410" y="160" width="50" height="50" as="geometry" />
        </mxCell>
        <mxCell id="0axwFl1xxEk5szE2pngX-48" value="" style="whiteSpace=wrap;html=1;aspect=fixed;fillColor=#7EA6E0;" vertex="1" parent="1">
          <mxGeometry x="460" y="160" width="50" height="50" as="geometry" />
        </mxCell>
        <mxCell id="0axwFl1xxEk5szE2pngX-49" value="" style="whiteSpace=wrap;html=1;aspect=fixed;fillColor=#D4E1F5;" vertex="1" parent="1">
          <mxGeometry x="510" y="160" width="50" height="50" as="geometry" />
        </mxCell>
        <mxCell id="0axwFl1xxEk5szE2pngX-50" value="" style="whiteSpace=wrap;html=1;aspect=fixed;fillColor=#7EA6E0;" vertex="1" parent="1">
          <mxGeometry x="210" y="210" width="50" height="50" as="geometry" />
        </mxCell>
        <mxCell id="0axwFl1xxEk5szE2pngX-51" value="" style="whiteSpace=wrap;html=1;aspect=fixed;fillColor=#D4E1F5;" vertex="1" parent="1">
          <mxGeometry x="260" y="210" width="50" height="50" as="geometry" />
        </mxCell>
        <mxCell id="0axwFl1xxEk5szE2pngX-52" value="" style="whiteSpace=wrap;html=1;aspect=fixed;fillColor=#7EA6E0;" vertex="1" parent="1">
          <mxGeometry x="310" y="210" width="50" height="50" as="geometry" />
        </mxCell>
        <mxCell id="0axwFl1xxEk5szE2pngX-53" value="" style="whiteSpace=wrap;html=1;aspect=fixed;fillColor=#D4E1F5;" vertex="1" parent="1">
          <mxGeometry x="360" y="210" width="50" height="50" as="geometry" />
        </mxCell>
        <mxCell id="0axwFl1xxEk5szE2pngX-54" value="" style="whiteSpace=wrap;html=1;aspect=fixed;fillColor=#7EA6E0;" vertex="1" parent="1">
          <mxGeometry x="410" y="210" width="50" height="50" as="geometry" />
        </mxCell>
        <mxCell id="0axwFl1xxEk5szE2pngX-55" value="" style="whiteSpace=wrap;html=1;aspect=fixed;fillColor=#D4E1F5;" vertex="1" parent="1">
          <mxGeometry x="460" y="210" width="50" height="50" as="geometry" />
        </mxCell>
        <mxCell id="0axwFl1xxEk5szE2pngX-56" value="" style="whiteSpace=wrap;html=1;aspect=fixed;fillColor=#7EA6E0;" vertex="1" parent="1">
          <mxGeometry x="510" y="210" width="50" height="50" as="geometry" />
        </mxCell>
        <mxCell id="0axwFl1xxEk5szE2pngX-57" value="" style="whiteSpace=wrap;html=1;aspect=fixed;fillColor=#D4E1F5;" vertex="1" parent="1">
          <mxGeometry x="560" y="210" width="50" height="50" as="geometry" />
        </mxCell>
        <mxCell id="0axwFl1xxEk5szE2pngX-58" value="" style="whiteSpace=wrap;html=1;aspect=fixed;fillColor=#7EA6E0;" vertex="1" parent="1">
          <mxGeometry x="560" y="260" width="50" height="50" as="geometry" />
        </mxCell>
        <mxCell id="0axwFl1xxEk5szE2pngX-59" value="" style="whiteSpace=wrap;html=1;aspect=fixed;fillColor=#D4E1F5;" vertex="1" parent="1">
          <mxGeometry x="210" y="260" width="50" height="50" as="geometry" />
        </mxCell>
        <mxCell id="0axwFl1xxEk5szE2pngX-60" value="" style="whiteSpace=wrap;html=1;aspect=fixed;fillColor=#7EA6E0;" vertex="1" parent="1">
          <mxGeometry x="260" y="260" width="50" height="50" as="geometry" />
        </mxCell>
        <mxCell id="0axwFl1xxEk5szE2pngX-61" value="" style="whiteSpace=wrap;html=1;aspect=fixed;fillColor=#D4E1F5;" vertex="1" parent="1">
          <mxGeometry x="310" y="260" width="50" height="50" as="geometry" />
        </mxCell>
        <mxCell id="0axwFl1xxEk5szE2pngX-62" value="" style="whiteSpace=wrap;html=1;aspect=fixed;fillColor=#7EA6E0;" vertex="1" parent="1">
          <mxGeometry x="360" y="260" width="50" height="50" as="geometry" />
        </mxCell>
        <mxCell id="0axwFl1xxEk5szE2pngX-63" value="" style="whiteSpace=wrap;html=1;aspect=fixed;fillColor=#D4E1F5;" vertex="1" parent="1">
          <mxGeometry x="410" y="260" width="50" height="50" as="geometry" />
        </mxCell>
        <mxCell id="0axwFl1xxEk5szE2pngX-64" value="" style="whiteSpace=wrap;html=1;aspect=fixed;fillColor=#7EA6E0;" vertex="1" parent="1">
          <mxGeometry x="460" y="260" width="50" height="50" as="geometry" />
        </mxCell>
        <mxCell id="0axwFl1xxEk5szE2pngX-65" value="" style="whiteSpace=wrap;html=1;aspect=fixed;fillColor=#D4E1F5;" vertex="1" parent="1">
          <mxGeometry x="510" y="260" width="50" height="50" as="geometry" />
        </mxCell>
        <mxCell id="0axwFl1xxEk5szE2pngX-66" value="" style="whiteSpace=wrap;html=1;aspect=fixed;fillColor=#7EA6E0;" vertex="1" parent="1">
          <mxGeometry x="210" y="310" width="50" height="50" as="geometry" />
        </mxCell>
        <mxCell id="0axwFl1xxEk5szE2pngX-67" value="" style="whiteSpace=wrap;html=1;aspect=fixed;fillColor=#D4E1F5;" vertex="1" parent="1">
          <mxGeometry x="260" y="310" width="50" height="50" as="geometry" />
        </mxCell>
        <mxCell id="0axwFl1xxEk5szE2pngX-68" value="" style="whiteSpace=wrap;html=1;aspect=fixed;fillColor=#7EA6E0;" vertex="1" parent="1">
          <mxGeometry x="310" y="310" width="50" height="50" as="geometry" />
        </mxCell>
        <mxCell id="0axwFl1xxEk5szE2pngX-69" value="" style="whiteSpace=wrap;html=1;aspect=fixed;fillColor=#D4E1F5;" vertex="1" parent="1">
          <mxGeometry x="360" y="310" width="50" height="50" as="geometry" />
        </mxCell>
        <mxCell id="0axwFl1xxEk5szE2pngX-70" value="" style="whiteSpace=wrap;html=1;aspect=fixed;fillColor=#7EA6E0;" vertex="1" parent="1">
          <mxGeometry x="410" y="310" width="50" height="50" as="geometry" />
        </mxCell>
        <mxCell id="0axwFl1xxEk5szE2pngX-71" value="" style="whiteSpace=wrap;html=1;aspect=fixed;fillColor=#D4E1F5;" vertex="1" parent="1">
          <mxGeometry x="460" y="310" width="50" height="50" as="geometry" />
        </mxCell>
        <mxCell id="0axwFl1xxEk5szE2pngX-72" value="" style="whiteSpace=wrap;html=1;aspect=fixed;fillColor=#7EA6E0;" vertex="1" parent="1">
          <mxGeometry x="510" y="310" width="50" height="50" as="geometry" />
        </mxCell>
        <mxCell id="0axwFl1xxEk5szE2pngX-73" value="" style="whiteSpace=wrap;html=1;aspect=fixed;fillColor=#D4E1F5;" vertex="1" parent="1">
          <mxGeometry x="560" y="310" width="50" height="50" as="geometry" />
        </mxCell>
        <mxCell id="0axwFl1xxEk5szE2pngX-74" value="" style="whiteSpace=wrap;html=1;aspect=fixed;fillColor=#7EA6E0;" vertex="1" parent="1">
          <mxGeometry x="560" y="360" width="50" height="50" as="geometry" />
        </mxCell>
        <mxCell id="0axwFl1xxEk5szE2pngX-75" value="" style="whiteSpace=wrap;html=1;aspect=fixed;fillColor=#D4E1F5;" vertex="1" parent="1">
          <mxGeometry x="210" y="360" width="50" height="50" as="geometry" />
        </mxCell>
        <mxCell id="0axwFl1xxEk5szE2pngX-76" value="" style="whiteSpace=wrap;html=1;aspect=fixed;fillColor=#7EA6E0;" vertex="1" parent="1">
          <mxGeometry x="260" y="360" width="50" height="50" as="geometry" />
        </mxCell>
        <mxCell id="0axwFl1xxEk5szE2pngX-77" value="" style="whiteSpace=wrap;html=1;aspect=fixed;fillColor=#D4E1F5;" vertex="1" parent="1">
          <mxGeometry x="310" y="360" width="50" height="50" as="geometry" />
        </mxCell>
        <mxCell id="0axwFl1xxEk5szE2pngX-78" value="" style="whiteSpace=wrap;html=1;aspect=fixed;fillColor=#7EA6E0;" vertex="1" parent="1">
          <mxGeometry x="360" y="360" width="50" height="50" as="geometry" />
        </mxCell>
        <mxCell id="0axwFl1xxEk5szE2pngX-79" value="" style="whiteSpace=wrap;html=1;aspect=fixed;fillColor=#D4E1F5;" vertex="1" parent="1">
          <mxGeometry x="410" y="360" width="50" height="50" as="geometry" />
        </mxCell>
        <mxCell id="0axwFl1xxEk5szE2pngX-80" value="" style="whiteSpace=wrap;html=1;aspect=fixed;fillColor=#7EA6E0;" vertex="1" parent="1">
          <mxGeometry x="460" y="360" width="50" height="50" as="geometry" />
        </mxCell>
        <mxCell id="0axwFl1xxEk5szE2pngX-81" value="" style="whiteSpace=wrap;html=1;aspect=fixed;fillColor=#D4E1F5;" vertex="1" parent="1">
          <mxGeometry x="510" y="360" width="50" height="50" as="geometry" />
        </mxCell>
        <mxCell id="0axwFl1xxEk5szE2pngX-1" value="" style="shape=image;imageAspect=0;aspect=fixed;verticalLabelPosition=bottom;verticalAlign=top;image=data:image/svg+xml,PHN2ZyB4bWxucz0iaHR0cDovL3d3dy53My5vcmcvMjAwMC9zdmciIHZpZXdCb3g9IjAgMCA0OTEuNTkgNDYyLjEiIGRhdGEtbmFtZT0iTGF5ZXIgMiIgaWQ9IkxheWVyXzIiPiYjeGE7ICA8ZyBpZD0ic3ZnMjQ0MyI+JiN4YTsgICAgPHBhdGggZD0ibTQ4Ny44NCw3OC4wOWMtNS43MS0xMS42MS0xNi4xOC0xNy44Mi0zMC4wNC0xNy44MnMtMjQuMzMsNi4yMS0zMC4wNCwxNy44MmMtNi42MywxMy40Ni00LjY3LDI1LjY1LDYuNDMsNDAuMDguNTguNzUtOS4yNSwyMS45OS0yNy45OSw2MC41MmwtMjguODgsNTkuMzctNC4yLTcyLjk1Yy0yLjMtNDAuMTItNC4yMi03NC40MS00LjI1LTc2LjE4LS4wNi0yLjc1LjQ5LTMuNTIsMy42OC01LjE3LDYuNzMtMy40NywxMi4wMy04LjksMTUuNDYtMTUuODgsMi44NC01Ljc3LDMuMjktNy43MiwzLjI5LTE0LjIzcy0uNDUtOC40Ni0zLjI5LTE0LjIzYy0zLjc2LTcuNjMtOS4wNi0xMi43Ni0xNy4yMS0xNi42NC03Ljc5LTMuNzEtMTguMjEtMy43MS0yNiwwLTE4LjIzLDguNjgtMjUuNjEsMjguMDMtMTcuMjEsNDUuMSwxLjk0LDMuOTMsNC45Niw4LjExLDcuMzMsMTAuMTRsNC4wNCwzLjQ1LTI0LjgzLDcyLjA3Yy0xMy42NiwzOS42NC0yNS4wOCw3Mi4wOC0yNS4zNyw3Mi4wOS0uMy4wMS02Ljg2LTM2LjMyLTE0LjU3LTgwLjcybC0xNC4wMi04MC43NCw0LjI5LTIuODRjOS41Ny02LjM0LDE0LjgyLTE2LjE1LDE0LjgzLTI3LjcxLjAxLTYuNDktLjQ0LTguNDQtMy4yOC0xNC4yMS0zLjc2LTcuNjMtOS4wNi0xMi43Ni0xNy4yMS0xNi42NC03Ljc5LTMuNzEtMTguMjEtMy43MS0yNiwwLTEzLjA4LDYuMjMtMjAuNTEsMTcuNC0yMC40OSwzMC44NS4wMSwxMS41NSw1LjI2LDIxLjM3LDE0LjgzLDI3LjcxbDQuMjksMi44NC0xNC4wMiw4MC43NGMtNy43MSw0NC40LTE0LjI3LDgwLjczLTE0LjU3LDgwLjcyLS4yOS0uMDEtMTEuNzEtMzIuNDUtMjUuMzctNzIuMDlsLTI0LjgzLTcyLjA3LDQuMDQtMy40NWMyLjM3LTIuMDMsNS4zOS02LjIxLDcuMzMtMTAuMTQsMi44NC01Ljc3LDMuMjktNy43MiwzLjI5LTE0LjIzcy0uNDUtOC40Ni0zLjI5LTE0LjIzYy0xLjk1LTMuOTYtNS4wMS04LjE4LTcuNS0xMC4zNS0xMC41OC05LjIyLTI0LjQzLTExLjY2LTM1LjcxLTYuMjktMTguMjMsOC42OC0yNS42MSwyOC4wMy0xNy4yMSw0NS4xLDMuNDMsNi45Nyw4LjczLDEyLjQsMTUuNDYsMTUuODgsMy4xOSwxLjY1LDMuNzQsMi40MiwzLjY4LDUuMTctLjAzLDEuNzctMS45NSwzNi4wNi00LjI1LDc2LjE4bC00LjIsNzIuOTUtMjguODgtNTkuMzdjLTE4Ljc0LTM4LjUzLTI4LjU3LTU5Ljc3LTI3Ljk5LTYwLjUyLDExLjEtMTQuNDMsMTMuMDYtMjYuNjIsNi40My00MC4wOC01LjcyLTExLjYxLTE2LjE4LTE3LjgyLTMwLjA0LTE3Ljgycy0yNC4zMyw2LjIxLTMwLjA0LDE3LjgyYy01LjU4LDExLjM0LTQuOTMsMjIuOTQsMS45LDMzLjY5LDMuODcsNi4wOCw4Ljk0LDkuODIsMTcuMDIsMTIuNTRsNi42MSwyLjIyLDEwLjU3LDg0LjQ4YzUuODEsNDYuNDYsMTEuMDMsODUuMDgsMTEuNTksODUuODFzOS4yMywxMS4zNywxOS4yNiwyMy42NWwxOC4yNCwyMi4zMyw4LjkyLDIwLjQ5LDguOTIsMjAuNDgtOS40OSwyMS43OWMtNS4yMiwxMS45OS05LjQ5LDIyLjkyLTkuNDksMjQuMzEsMCw0LjA5LDMuMjQsNy4wNSwxMy42NSwxMi40OCwyMS4zMiwxMS4xLDQ5LjE3LDE4LjA3LDc4LjM1LDE5LjZoMGMzLjAzLjE2LDM1Ljg4LjIsNzMsLjA5LDU0LjQ1LS4xNSw2OS41NC0uNDksNzguMDYtMS43MiwyMi42OC0zLjI4LDQyLjc3LTkuMzcsNTkuMjktMTcuOTcsMTAuNDEtNS40MywxMy42NS04LjM5LDEzLjY1LTEyLjQ4LDAtMS4zOS00LjI3LTEyLjMyLTkuNDktMjQuMzFsLTkuNDktMjEuNzksOC45Mi0yMC40OCw4LjkyLTIwLjQ5LDE4LjI0LTIyLjMzYzEwLjAzLTEyLjI4LDE4LjctMjIuOTIsMTkuMjYtMjMuNjUuNTYtLjczLDUuNzctMzkuMzUsMTEuNTktODUuODFsMTAuNTctODQuNDgsNi42MS0yLjIyYzguMDgtMi43MiwxMy4xNS02LjQ2LDE3LjAyLTEyLjU0LDYuODItMTAuNzUsNy40OC0yMi4zNSwxLjg5LTMzLjY5Wm0tMTIxLjk2LTM4LjE2YzUuMTgsMy40OSw3LjkyLDguMjQsNy45MiwxMy43M3MtMi43NCwxMC4yMy03LjkyLDEzLjczYy05LjgxLDYuNjEtMjQuMDgtMS41Mi0yNC4wOC0xMy43M3MxNC4yNy0yMC4zNCwyNC4wOC0xMy43M1ptLTY3LjksMjEzLjY0Yy4yOC0uNzgsMTIuNC0zNS45LDI2LjkyLTc4LjA2LDE1LjMxLTQ0LjQ1LDI2LjUxLTc1LjUzLDI2LjY1LTc0LC4xNCwxLjQ2LDIuMDQsMzQuODIsNC4yMiw3NC4xNSwyLjE4LDM5LjMyLDQuMjMsNzQuNTMsNC41Niw3OC4yNS4zMiwzLjcxLjIzLDYuNzMtLjIyLDYuNzItMS41NS0uMDYtMTYuODQtOC40OS0yMC41Ni0xMS4zMy00LjQ0LTMuNDEtNi4yNy0zLjI5LTE4Ljc4LDEuMjItOS44MSwzLjU0LTIzLjY1LDUuMzktMjIuNzksMy4wNVpNMjI5LjgsMzMuNjVjMC01LjQ5LDIuNzQtMTAuMjMsNy45Mi0xMy43Myw5LjgxLTYuNjEsMjQuMDgsMS41MiwyNC4wOCwxMy43MywwLDUuNDktMi43NCwxMC4yMy03LjkyLDEzLjczLTkuODEsNi42MS0yNC4wOC0xLjUyLTI0LjA4LTEzLjczWm0tMTIuNzUsMjE1Ljc1Yy4yNS0uNjksNi43MS0zNy4zNiwxNC4zNS04MS41LDcuNjUtNDQuMTQsMTQuMTItODAuMjUsMTQuNC04MC4yNS41NywwLDI4LjksMTYyLjMsMjguNDMsMTYyLjg1LS43LjgyLTE0Ljg1LTcuNjItMTkuMy0xMS41Mi03LjgtNi44Mi0xMC4xNi02LjczLTE5LjEzLjc0LTIuNDcsMi4wNi03LjQ2LDUuMzYtMTEuMDgsNy4zNC03LjEyLDMuODgtOC4zOCw0LjI2LTcuNjcsMi4zNFptLTUwLjM1LTczLjljMTQuNTIsNDIuMTYsMjYuNjQsNzcuMjgsMjYuOTIsNzguMDYuODYsMi4zNC0xMi45OC40OS0yMi43OS0zLjA1LTEyLjg4LTQuNjQtMTQuMTQtNC42OC0xOS43NS0uNTktMi42MywxLjkyLTguMDMsNS4xMS0xMi4wMSw3LjExaDBjLTMuOTcsMS45OS03LjQ4LDMuNjItNy44MSwzLjYycy0uMzEtMy4wNCwwLTYuNzVjLjMzLTMuNzIsMi4zOC0zOC45Myw0LjU2LTc4LjI1LDIuMTgtMzkuMzMsNC4wOC03Mi42OSw0LjIyLTc0LjE1LjE0LTEuNTMsMTEuMzQsMjkuNTUsMjYuNjUsNzRabS00OC45LTEyMS44NWMwLTEyLjIxLDE0LjI3LTIwLjM0LDI0LjA4LTEzLjczLDEwLjY0LDcuMTcsMTAuNjQsMjAuMjgsMCwyNy40NS05LjgxLDYuNjEtMjQuMDgtMS41Mi0yNC4wOC0xMy43M1ptLTc2LjAyLDUzLjI0Yy0xLjkxLjk3LTUuNTEsMS43NS03Ljk4LDEuNzVzLTYuMDctLjc4LTcuOTgtMS43NWMtMTAuODItNS40My0xMC44Mi0yMi4wNiwwLTI3LjQ5LDQuNDUtMi4yNCwxMS41MS0yLjI0LDE1Ljk2LDAsMTAuODIsNS40MywxMC44MiwyMi4wNiwwLDI3LjQ5Wm0yNC4wMSwxNjguMDdjMC0uNDUtMy41OS0yOS4zNy03Ljk3LTY0LjI2LTQuMzgtMzQuOS03LjgzLTYzLjU4LTcuNjYtNjMuNzQuMjQtLjI1LDU1Ljg5LDExMy42NCw1Ny4zNiwxMTcuNDQuNjMsMS41OS04LjA0LDEuNjgtMTcuNzQuMTctNS40NC0uODQtNy40NC0uNzktOS40My4yNS0xLjM5LjczLTUuMjMsMy40OS04LjU0LDYuMTQtMy4zMSwyLjY1LTYuMDIsNC40NS02LjAzLDRabTI5OC44OCwxNTkuNDdjLTExLjM3LDMuODgtMjAuMDEsNS44OS0zMy44Nyw3LjktOC40NSwxLjIyLTIzLjY3LDEuNTYtNzgsMS43MS0zNy4xMi4xMS02OS45OC4wNy03My0uMDktMTkuNDEtMS4wMi0zNy43Mi00LjMxLTUyLjg3LTkuNWwtOS4zNi0zLjIxLDYuODYtMi4zM2MxMS4yLTMuNzksMzcuNzktMTAuMDQsNTMuODctMTIuNjYsMjQuOS00LjA2LDM4LjQzLTUuMDgsNjcuNS01LjA4czQyLjYsMS4wMiw2Ny41LDUuMDhjMTYuMDgsMi42Miw0Mi42Nyw4Ljg3LDUzLjg3LDEyLjY2bDYuODYsMi4zMy05LjM2LDMuMTlabTYuODgtMjIuMzhjLTE5LjkzLTYuOC01OC40My0xNC42OS04NS43NS0xNy41Ni0xNi4yOS0xLjcxLTYzLjcxLTEuNzEtODAsMC0xOS42NCwyLjA3LTQwLjk1LDUuODEtNjAuNSwxMC42NC05LjksMi40NS0yMS4yNiw1LjU2LTI1LjI1LDYuOTItMy45OSwxLjM2LTcuMjUsMi4zLTcuMjUsMi4wN3MyLjE5LTUuNDgsNC44Ny0xMS42OWM1Ljc5LTEzLjQzLDQuODctMTIuNzgsMzAuMzUtMjEuMjMsMTcuMzUtNS43NiwzNy4yNy0xMC4yNCw1OC43OC0xMy4yMywxNy41My0yLjQzLDYwLjQ3LTIuNDMsNzgsMCwyMS41MSwyLjk5LDQxLjQzLDcuNDcsNTguNzgsMTMuMjMsMjUuNDgsOC40NSwyNC41Niw3LjgsMzAuMzUsMjEuMjMsMi42OCw2LjIxLDQuODcsMTEuNDcsNC44NywxMS42OXMtMy4yNi0uNzEtNy4yNS0yLjA3Wm02LjA0LTU1LjUzYy0zLjI3LDcuNS02LjE4LDE0LjE2LTYuNDUsMTQuODEtLjM2Ljg1LTEuNy42Ni00Ljg3LS43LTIuNC0xLjAzLTExLjI1LTQuMS0xOS42Ny02LjgyLTY2LjE4LTIxLjQyLTEzNS40Mi0yMS40Mi0yMDEuNiwwaDBjLTguNDIsMi43Mi0xNy4yNyw1Ljc5LTE5LjY3LDYuODItMy4xNywxLjM2LTQuNTEsMS41NS00Ljg3LjctLjI3LS42NS0zLjE4LTcuMzEtNi40NS0xNC44MWwtNS45NS0xMy42MiwzLjYyLTEuMTZjMjkuMjgtOS4zNiw1MS43OS0xNC42Niw3Ni42Mi0xOC4wMiw2NS44NC04LjkzLDEyNC42NS0zLjQsMTkxLjYyLDE4LjAybDMuNjIsMS4xNi01Ljk1LDEzLjYyWm0xNS4zMS0yOS42MmMtLjM5LjQyLTQuMDYtLjM5LTguMTYtMS44LTkwLjE3LTMxLjAxLTE4Ny43MS0zMS4wMi0yNzcuODctLjAxLTQuMDgsMS40MS03LjQ3LDIuNTYtNy41NCwyLjU2LS4zMiwwLTI3LjA2LTMzLjE5LTI3LjIzLTMzLjgtLjExLS4zOSwzLTMuMjEsNi45MS02LjI4bDcuMTEtNS41Nyw1LjU5LjkyYzE3LjM0LDIuODUsNDIuODUtMi43NSw2MS4zOC0xMy40OGw2Ljc5LTMuOTMsNy43MSwyLjUzYzExLjMsMy43MSwyMC4zMSw0Ljk3LDMwLjY2LDQuMjksMTQuODYtLjk4LDI5LjU1LTUuOTksNDIuMy0xNC40MWw1LjI1LTMuNDcsNS4yNSwzLjQ3YzIyLjUyLDE0Ljg4LDQ3Ljc5LDE4LjM4LDcyLjk2LDEwLjEybDcuNzEtMi41Myw2Ljc5LDMuOTNjMTguNTMsMTAuNzMsNDQuMDQsMTYuMzMsNjEuMzgsMTMuNDhsNS41OS0uOTIsNy4xMSw1LjU3YzMuOTEsMy4wNyw3LjEyLDUuOCw3LjE0LDYuMDguMDIuNC0yNC40LDMwLjY4LTI2LjgzLDMzLjI1Wm00MC44NC0xMTUuNzVjLTQuNCwzNS4xNC04LjEsNjMuOTktOC4yMyw2NC4xMi0uMTIuMTItMy4zNC0yLjMxLTcuMTYtNS40MS03Ljc0LTYuMjgtNi43NC02LjA5LTI0LjQ3LTQuNzEtOC43OS42OS0xMC4zMy42LTkuODctLjU5LDEuNTItMy44Nyw1Ny4xOC0xMTcuODUsNTcuNDQtMTE3LjYuMTYuMTYtMy4zMSwyOS4wNC03LjcxLDY0LjE5Wm0zMi4wNC0xMDQuMjZjLTEuOTEuOTctNS41LDEuNzUtNy45OCwxLjc1LTkuNTMsMC0xNi02LjI3LTE2LTE1LjQ5czYuNDctMTUuNSwxNi0xNS41LDE2LDYuMjcsMTYsMTUuNWMwLDYuMjctMi44NCwxMS4xNC04LjAyLDEzLjc0WiIvPiYjeGE7ICA8L2c+JiN4YTs8L3N2Zz4=;" vertex="1" parent="1">
          <mxGeometry x="515" y="16.25" width="40" height="37.5" as="geometry" />
        </mxCell>
        <mxCell id="0axwFl1xxEk5szE2pngX-82" value="" style="shape=image;imageAspect=0;aspect=fixed;verticalLabelPosition=bottom;verticalAlign=top;image=data:image/svg+xml,PHN2ZyB4bWxucz0iaHR0cDovL3d3dy53My5vcmcvMjAwMC9zdmciIHZpZXdCb3g9IjAgMCA0OTEuNTkgNDYyLjEiIGRhdGEtbmFtZT0iTGF5ZXIgMiIgaWQ9IkxheWVyXzIiPiYjeGE7ICA8ZyBpZD0ic3ZnMjQ0MyI+JiN4YTsgICAgPHBhdGggZD0ibTQ4Ny44NCw3OC4wOWMtNS43MS0xMS42MS0xNi4xOC0xNy44Mi0zMC4wNC0xNy44MnMtMjQuMzMsNi4yMS0zMC4wNCwxNy44MmMtNi42MywxMy40Ni00LjY3LDI1LjY1LDYuNDMsNDAuMDguNTguNzUtOS4yNSwyMS45OS0yNy45OSw2MC41MmwtMjguODgsNTkuMzctNC4yLTcyLjk1Yy0yLjMtNDAuMTItNC4yMi03NC40MS00LjI1LTc2LjE4LS4wNi0yLjc1LjQ5LTMuNTIsMy42OC01LjE3LDYuNzMtMy40NywxMi4wMy04LjksMTUuNDYtMTUuODgsMi44NC01Ljc3LDMuMjktNy43MiwzLjI5LTE0LjIzcy0uNDUtOC40Ni0zLjI5LTE0LjIzYy0zLjc2LTcuNjMtOS4wNi0xMi43Ni0xNy4yMS0xNi42NC03Ljc5LTMuNzEtMTguMjEtMy43MS0yNiwwLTE4LjIzLDguNjgtMjUuNjEsMjguMDMtMTcuMjEsNDUuMSwxLjk0LDMuOTMsNC45Niw4LjExLDcuMzMsMTAuMTRsNC4wNCwzLjQ1LTI0LjgzLDcyLjA3Yy0xMy42NiwzOS42NC0yNS4wOCw3Mi4wOC0yNS4zNyw3Mi4wOS0uMy4wMS02Ljg2LTM2LjMyLTE0LjU3LTgwLjcybC0xNC4wMi04MC43NCw0LjI5LTIuODRjOS41Ny02LjM0LDE0LjgyLTE2LjE1LDE0LjgzLTI3LjcxLjAxLTYuNDktLjQ0LTguNDQtMy4yOC0xNC4yMS0zLjc2LTcuNjMtOS4wNi0xMi43Ni0xNy4yMS0xNi42NC03Ljc5LTMuNzEtMTguMjEtMy43MS0yNiwwLTEzLjA4LDYuMjMtMjAuNTEsMTcuNC0yMC40OSwzMC44NS4wMSwxMS41NSw1LjI2LDIxLjM3LDE0LjgzLDI3LjcxbDQuMjksMi44NC0xNC4wMiw4MC43NGMtNy43MSw0NC40LTE0LjI3LDgwLjczLTE0LjU3LDgwLjcyLS4yOS0uMDEtMTEuNzEtMzIuNDUtMjUuMzctNzIuMDlsLTI0LjgzLTcyLjA3LDQuMDQtMy40NWMyLjM3LTIuMDMsNS4zOS02LjIxLDcuMzMtMTAuMTQsMi44NC01Ljc3LDMuMjktNy43MiwzLjI5LTE0LjIzcy0uNDUtOC40Ni0zLjI5LTE0LjIzYy0xLjk1LTMuOTYtNS4wMS04LjE4LTcuNS0xMC4zNS0xMC41OC05LjIyLTI0LjQzLTExLjY2LTM1LjcxLTYuMjktMTguMjMsOC42OC0yNS42MSwyOC4wMy0xNy4yMSw0NS4xLDMuNDMsNi45Nyw4LjczLDEyLjQsMTUuNDYsMTUuODgsMy4xOSwxLjY1LDMuNzQsMi40MiwzLjY4LDUuMTctLjAzLDEuNzctMS45NSwzNi4wNi00LjI1LDc2LjE4bC00LjIsNzIuOTUtMjguODgtNTkuMzdjLTE4Ljc0LTM4LjUzLTI4LjU3LTU5Ljc3LTI3Ljk5LTYwLjUyLDExLjEtMTQuNDMsMTMuMDYtMjYuNjIsNi40My00MC4wOC01LjcyLTExLjYxLTE2LjE4LTE3LjgyLTMwLjA0LTE3Ljgycy0yNC4zMyw2LjIxLTMwLjA0LDE3LjgyYy01LjU4LDExLjM0LTQuOTMsMjIuOTQsMS45LDMzLjY5LDMuODcsNi4wOCw4Ljk0LDkuODIsMTcuMDIsMTIuNTRsNi42MSwyLjIyLDEwLjU3LDg0LjQ4YzUuODEsNDYuNDYsMTEuMDMsODUuMDgsMTEuNTksODUuODFzOS4yMywxMS4zNywxOS4yNiwyMy42NWwxOC4yNCwyMi4zMyw4LjkyLDIwLjQ5LDguOTIsMjAuNDgtOS40OSwyMS43OWMtNS4yMiwxMS45OS05LjQ5LDIyLjkyLTkuNDksMjQuMzEsMCw0LjA5LDMuMjQsNy4wNSwxMy42NSwxMi40OCwyMS4zMiwxMS4xLDQ5LjE3LDE4LjA3LDc4LjM1LDE5LjZoMGMzLjAzLjE2LDM1Ljg4LjIsNzMsLjA5LDU0LjQ1LS4xNSw2OS41NC0uNDksNzguMDYtMS43MiwyMi42OC0zLjI4LDQyLjc3LTkuMzcsNTkuMjktMTcuOTcsMTAuNDEtNS40MywxMy42NS04LjM5LDEzLjY1LTEyLjQ4LDAtMS4zOS00LjI3LTEyLjMyLTkuNDktMjQuMzFsLTkuNDktMjEuNzksOC45Mi0yMC40OCw4LjkyLTIwLjQ5LDE4LjI0LTIyLjMzYzEwLjAzLTEyLjI4LDE4LjctMjIuOTIsMTkuMjYtMjMuNjUuNTYtLjczLDUuNzctMzkuMzUsMTEuNTktODUuODFsMTAuNTctODQuNDgsNi42MS0yLjIyYzguMDgtMi43MiwxMy4xNS02LjQ2LDE3LjAyLTEyLjU0LDYuODItMTAuNzUsNy40OC0yMi4zNSwxLjg5LTMzLjY5Wm0tMTIxLjk2LTM4LjE2YzUuMTgsMy40OSw3LjkyLDguMjQsNy45MiwxMy43M3MtMi43NCwxMC4yMy03LjkyLDEzLjczYy05LjgxLDYuNjEtMjQuMDgtMS41Mi0yNC4wOC0xMy43M3MxNC4yNy0yMC4zNCwyNC4wOC0xMy43M1ptLTY3LjksMjEzLjY0Yy4yOC0uNzgsMTIuNC0zNS45LDI2LjkyLTc4LjA2LDE1LjMxLTQ0LjQ1LDI2LjUxLTc1LjUzLDI2LjY1LTc0LC4xNCwxLjQ2LDIuMDQsMzQuODIsNC4yMiw3NC4xNSwyLjE4LDM5LjMyLDQuMjMsNzQuNTMsNC41Niw3OC4yNS4zMiwzLjcxLjIzLDYuNzMtLjIyLDYuNzItMS41NS0uMDYtMTYuODQtOC40OS0yMC41Ni0xMS4zMy00LjQ0LTMuNDEtNi4yNy0zLjI5LTE4Ljc4LDEuMjItOS44MSwzLjU0LTIzLjY1LDUuMzktMjIuNzksMy4wNVpNMjI5LjgsMzMuNjVjMC01LjQ5LDIuNzQtMTAuMjMsNy45Mi0xMy43Myw5LjgxLTYuNjEsMjQuMDgsMS41MiwyNC4wOCwxMy43MywwLDUuNDktMi43NCwxMC4yMy03LjkyLDEzLjczLTkuODEsNi42MS0yNC4wOC0xLjUyLTI0LjA4LTEzLjczWm0tMTIuNzUsMjE1Ljc1Yy4yNS0uNjksNi43MS0zNy4zNiwxNC4zNS04MS41LDcuNjUtNDQuMTQsMTQuMTItODAuMjUsMTQuNC04MC4yNS41NywwLDI4LjksMTYyLjMsMjguNDMsMTYyLjg1LS43LjgyLTE0Ljg1LTcuNjItMTkuMy0xMS41Mi03LjgtNi44Mi0xMC4xNi02LjczLTE5LjEzLjc0LTIuNDcsMi4wNi03LjQ2LDUuMzYtMTEuMDgsNy4zNC03LjEyLDMuODgtOC4zOCw0LjI2LTcuNjcsMi4zNFptLTUwLjM1LTczLjljMTQuNTIsNDIuMTYsMjYuNjQsNzcuMjgsMjYuOTIsNzguMDYuODYsMi4zNC0xMi45OC40OS0yMi43OS0zLjA1LTEyLjg4LTQuNjQtMTQuMTQtNC42OC0xOS43NS0uNTktMi42MywxLjkyLTguMDMsNS4xMS0xMi4wMSw3LjExaDBjLTMuOTcsMS45OS03LjQ4LDMuNjItNy44MSwzLjYycy0uMzEtMy4wNCwwLTYuNzVjLjMzLTMuNzIsMi4zOC0zOC45Myw0LjU2LTc4LjI1LDIuMTgtMzkuMzMsNC4wOC03Mi42OSw0LjIyLTc0LjE1LjE0LTEuNTMsMTEuMzQsMjkuNTUsMjYuNjUsNzRabS00OC45LTEyMS44NWMwLTEyLjIxLDE0LjI3LTIwLjM0LDI0LjA4LTEzLjczLDEwLjY0LDcuMTcsMTAuNjQsMjAuMjgsMCwyNy40NS05LjgxLDYuNjEtMjQuMDgtMS41Mi0yNC4wOC0xMy43M1ptLTc2LjAyLDUzLjI0Yy0xLjkxLjk3LTUuNTEsMS43NS03Ljk4LDEuNzVzLTYuMDctLjc4LTcuOTgtMS43NWMtMTAuODItNS40My0xMC44Mi0yMi4wNiwwLTI3LjQ5LDQuNDUtMi4yNCwxMS41MS0yLjI0LDE1Ljk2LDAsMTAuODIsNS40MywxMC44MiwyMi4wNiwwLDI3LjQ5Wm0yNC4wMSwxNjguMDdjMC0uNDUtMy41OS0yOS4zNy03Ljk3LTY0LjI2LTQuMzgtMzQuOS03LjgzLTYzLjU4LTcuNjYtNjMuNzQuMjQtLjI1LDU1Ljg5LDExMy42NCw1Ny4zNiwxMTcuNDQuNjMsMS41OS04LjA0LDEuNjgtMTcuNzQuMTctNS40NC0uODQtNy40NC0uNzktOS40My4yNS0xLjM5LjczLTUuMjMsMy40OS04LjU0LDYuMTQtMy4zMSwyLjY1LTYuMDIsNC40NS02LjAzLDRabTI5OC44OCwxNTkuNDdjLTExLjM3LDMuODgtMjAuMDEsNS44OS0zMy44Nyw3LjktOC40NSwxLjIyLTIzLjY3LDEuNTYtNzgsMS43MS0zNy4xMi4xMS02OS45OC4wNy03My0uMDktMTkuNDEtMS4wMi0zNy43Mi00LjMxLTUyLjg3LTkuNWwtOS4zNi0zLjIxLDYuODYtMi4zM2MxMS4yLTMuNzksMzcuNzktMTAuMDQsNTMuODctMTIuNjYsMjQuOS00LjA2LDM4LjQzLTUuMDgsNjcuNS01LjA4czQyLjYsMS4wMiw2Ny41LDUuMDhjMTYuMDgsMi42Miw0Mi42Nyw4Ljg3LDUzLjg3LDEyLjY2bDYuODYsMi4zMy05LjM2LDMuMTlabTYuODgtMjIuMzhjLTE5LjkzLTYuOC01OC40My0xNC42OS04NS43NS0xNy41Ni0xNi4yOS0xLjcxLTYzLjcxLTEuNzEtODAsMC0xOS42NCwyLjA3LTQwLjk1LDUuODEtNjAuNSwxMC42NC05LjksMi40NS0yMS4yNiw1LjU2LTI1LjI1LDYuOTItMy45OSwxLjM2LTcuMjUsMi4zLTcuMjUsMi4wN3MyLjE5LTUuNDgsNC44Ny0xMS42OWM1Ljc5LTEzLjQzLDQuODctMTIuNzgsMzAuMzUtMjEuMjMsMTcuMzUtNS43NiwzNy4yNy0xMC4yNCw1OC43OC0xMy4yMywxNy41My0yLjQzLDYwLjQ3LTIuNDMsNzgsMCwyMS41MSwyLjk5LDQxLjQzLDcuNDcsNTguNzgsMTMuMjMsMjUuNDgsOC40NSwyNC41Niw3LjgsMzAuMzUsMjEuMjMsMi42OCw2LjIxLDQuODcsMTEuNDcsNC44NywxMS42OXMtMy4yNi0uNzEtNy4yNS0yLjA3Wm02LjA0LTU1LjUzYy0zLjI3LDcuNS02LjE4LDE0LjE2LTYuNDUsMTQuODEtLjM2Ljg1LTEuNy42Ni00Ljg3LS43LTIuNC0xLjAzLTExLjI1LTQuMS0xOS42Ny02LjgyLTY2LjE4LTIxLjQyLTEzNS40Mi0yMS40Mi0yMDEuNiwwaDBjLTguNDIsMi43Mi0xNy4yNyw1Ljc5LTE5LjY3LDYuODItMy4xNywxLjM2LTQuNTEsMS41NS00Ljg3LjctLjI3LS42NS0zLjE4LTcuMzEtNi40NS0xNC44MWwtNS45NS0xMy42MiwzLjYyLTEuMTZjMjkuMjgtOS4zNiw1MS43OS0xNC42Niw3Ni42Mi0xOC4wMiw2NS44NC04LjkzLDEyNC42NS0zLjQsMTkxLjYyLDE4LjAybDMuNjIsMS4xNi01Ljk1LDEzLjYyWm0xNS4zMS0yOS42MmMtLjM5LjQyLTQuMDYtLjM5LTguMTYtMS44LTkwLjE3LTMxLjAxLTE4Ny43MS0zMS4wMi0yNzcuODctLjAxLTQuMDgsMS40MS03LjQ3LDIuNTYtNy41NCwyLjU2LS4zMiwwLTI3LjA2LTMzLjE5LTI3LjIzLTMzLjgtLjExLS4zOSwzLTMuMjEsNi45MS02LjI4bDcuMTEtNS41Nyw1LjU5LjkyYzE3LjM0LDIuODUsNDIuODUtMi43NSw2MS4zOC0xMy40OGw2Ljc5LTMuOTMsNy43MSwyLjUzYzExLjMsMy43MSwyMC4zMSw0Ljk3LDMwLjY2LDQuMjksMTQuODYtLjk4LDI5LjU1LTUuOTksNDIuMy0xNC40MWw1LjI1LTMuNDcsNS4yNSwzLjQ3YzIyLjUyLDE0Ljg4LDQ3Ljc5LDE4LjM4LDcyLjk2LDEwLjEybDcuNzEtMi41Myw2Ljc5LDMuOTNjMTguNTMsMTAuNzMsNDQuMDQsMTYuMzMsNjEuMzgsMTMuNDhsNS41OS0uOTIsNy4xMSw1LjU3YzMuOTEsMy4wNyw3LjEyLDUuOCw3LjE0LDYuMDguMDIuNC0yNC40LDMwLjY4LTI2LjgzLDMzLjI1Wm00MC44NC0xMTUuNzVjLTQuNCwzNS4xNC04LjEsNjMuOTktOC4yMyw2NC4xMi0uMTIuMTItMy4zNC0yLjMxLTcuMTYtNS40MS03Ljc0LTYuMjgtNi43NC02LjA5LTI0LjQ3LTQuNzEtOC43OS42OS0xMC4zMy42LTkuODctLjU5LDEuNTItMy44Nyw1Ny4xOC0xMTcuODUsNTcuNDQtMTE3LjYuMTYuMTYtMy4zMSwyOS4wNC03LjcxLDY0LjE5Wm0zMi4wNC0xMDQuMjZjLTEuOTEuOTctNS41LDEuNzUtNy45OCwxLjc1LTkuNTMsMC0xNi02LjI3LTE2LTE1LjQ5czYuNDctMTUuNSwxNi0xNS41LDE2LDYuMjcsMTYsMTUuNWMwLDYuMjctMi44NCwxMS4xNC04LjAyLDEzLjc0WiIvPiYjeGE7ICA8L2c+JiN4YTs8L3N2Zz4=;" vertex="1" parent="1">
          <mxGeometry x="565" y="116.25" width="40" height="37.5" as="geometry" />
        </mxCell>
        <mxCell id="0axwFl1xxEk5szE2pngX-83" value="" style="shape=image;imageAspect=0;aspect=fixed;verticalLabelPosition=bottom;verticalAlign=top;image=data:image/svg+xml,PHN2ZyB4bWxucz0iaHR0cDovL3d3dy53My5vcmcvMjAwMC9zdmciIHZpZXdCb3g9IjAgMCA0OTEuNTkgNDYyLjEiIGRhdGEtbmFtZT0iTGF5ZXIgMiIgaWQ9IkxheWVyXzIiPiYjeGE7ICA8ZyBpZD0ic3ZnMjQ0MyI+JiN4YTsgICAgPHBhdGggZD0ibTQ4Ny44NCw3OC4wOWMtNS43MS0xMS42MS0xNi4xOC0xNy44Mi0zMC4wNC0xNy44MnMtMjQuMzMsNi4yMS0zMC4wNCwxNy44MmMtNi42MywxMy40Ni00LjY3LDI1LjY1LDYuNDMsNDAuMDguNTguNzUtOS4yNSwyMS45OS0yNy45OSw2MC41MmwtMjguODgsNTkuMzctNC4yLTcyLjk1Yy0yLjMtNDAuMTItNC4yMi03NC40MS00LjI1LTc2LjE4LS4wNi0yLjc1LjQ5LTMuNTIsMy42OC01LjE3LDYuNzMtMy40NywxMi4wMy04LjksMTUuNDYtMTUuODgsMi44NC01Ljc3LDMuMjktNy43MiwzLjI5LTE0LjIzcy0uNDUtOC40Ni0zLjI5LTE0LjIzYy0zLjc2LTcuNjMtOS4wNi0xMi43Ni0xNy4yMS0xNi42NC03Ljc5LTMuNzEtMTguMjEtMy43MS0yNiwwLTE4LjIzLDguNjgtMjUuNjEsMjguMDMtMTcuMjEsNDUuMSwxLjk0LDMuOTMsNC45Niw4LjExLDcuMzMsMTAuMTRsNC4wNCwzLjQ1LTI0LjgzLDcyLjA3Yy0xMy42NiwzOS42NC0yNS4wOCw3Mi4wOC0yNS4zNyw3Mi4wOS0uMy4wMS02Ljg2LTM2LjMyLTE0LjU3LTgwLjcybC0xNC4wMi04MC43NCw0LjI5LTIuODRjOS41Ny02LjM0LDE0LjgyLTE2LjE1LDE0LjgzLTI3LjcxLjAxLTYuNDktLjQ0LTguNDQtMy4yOC0xNC4yMS0zLjc2LTcuNjMtOS4wNi0xMi43Ni0xNy4yMS0xNi42NC03Ljc5LTMuNzEtMTguMjEtMy43MS0yNiwwLTEzLjA4LDYuMjMtMjAuNTEsMTcuNC0yMC40OSwzMC44NS4wMSwxMS41NSw1LjI2LDIxLjM3LDE0LjgzLDI3LjcxbDQuMjksMi44NC0xNC4wMiw4MC43NGMtNy43MSw0NC40LTE0LjI3LDgwLjczLTE0LjU3LDgwLjcyLS4yOS0uMDEtMTEuNzEtMzIuNDUtMjUuMzctNzIuMDlsLTI0LjgzLTcyLjA3LDQuMDQtMy40NWMyLjM3LTIuMDMsNS4zOS02LjIxLDcuMzMtMTAuMTQsMi44NC01Ljc3LDMuMjktNy43MiwzLjI5LTE0LjIzcy0uNDUtOC40Ni0zLjI5LTE0LjIzYy0xLjk1LTMuOTYtNS4wMS04LjE4LTcuNS0xMC4zNS0xMC41OC05LjIyLTI0LjQzLTExLjY2LTM1LjcxLTYuMjktMTguMjMsOC42OC0yNS42MSwyOC4wMy0xNy4yMSw0NS4xLDMuNDMsNi45Nyw4LjczLDEyLjQsMTUuNDYsMTUuODgsMy4xOSwxLjY1LDMuNzQsMi40MiwzLjY4LDUuMTctLjAzLDEuNzctMS45NSwzNi4wNi00LjI1LDc2LjE4bC00LjIsNzIuOTUtMjguODgtNTkuMzdjLTE4Ljc0LTM4LjUzLTI4LjU3LTU5Ljc3LTI3Ljk5LTYwLjUyLDExLjEtMTQuNDMsMTMuMDYtMjYuNjIsNi40My00MC4wOC01LjcyLTExLjYxLTE2LjE4LTE3LjgyLTMwLjA0LTE3Ljgycy0yNC4zMyw2LjIxLTMwLjA0LDE3LjgyYy01LjU4LDExLjM0LTQuOTMsMjIuOTQsMS45LDMzLjY5LDMuODcsNi4wOCw4Ljk0LDkuODIsMTcuMDIsMTIuNTRsNi42MSwyLjIyLDEwLjU3LDg0LjQ4YzUuODEsNDYuNDYsMTEuMDMsODUuMDgsMTEuNTksODUuODFzOS4yMywxMS4zNywxOS4yNiwyMy42NWwxOC4yNCwyMi4zMyw4LjkyLDIwLjQ5LDguOTIsMjAuNDgtOS40OSwyMS43OWMtNS4yMiwxMS45OS05LjQ5LDIyLjkyLTkuNDksMjQuMzEsMCw0LjA5LDMuMjQsNy4wNSwxMy42NSwxMi40OCwyMS4zMiwxMS4xLDQ5LjE3LDE4LjA3LDc4LjM1LDE5LjZoMGMzLjAzLjE2LDM1Ljg4LjIsNzMsLjA5LDU0LjQ1LS4xNSw2OS41NC0uNDksNzguMDYtMS43MiwyMi42OC0zLjI4LDQyLjc3LTkuMzcsNTkuMjktMTcuOTcsMTAuNDEtNS40MywxMy42NS04LjM5LDEzLjY1LTEyLjQ4LDAtMS4zOS00LjI3LTEyLjMyLTkuNDktMjQuMzFsLTkuNDktMjEuNzksOC45Mi0yMC40OCw4LjkyLTIwLjQ5LDE4LjI0LTIyLjMzYzEwLjAzLTEyLjI4LDE4LjctMjIuOTIsMTkuMjYtMjMuNjUuNTYtLjczLDUuNzctMzkuMzUsMTEuNTktODUuODFsMTAuNTctODQuNDgsNi42MS0yLjIyYzguMDgtMi43MiwxMy4xNS02LjQ2LDE3LjAyLTEyLjU0LDYuODItMTAuNzUsNy40OC0yMi4zNSwxLjg5LTMzLjY5Wm0tMTIxLjk2LTM4LjE2YzUuMTgsMy40OSw3LjkyLDguMjQsNy45MiwxMy43M3MtMi43NCwxMC4yMy03LjkyLDEzLjczYy05LjgxLDYuNjEtMjQuMDgtMS41Mi0yNC4wOC0xMy43M3MxNC4yNy0yMC4zNCwyNC4wOC0xMy43M1ptLTY3LjksMjEzLjY0Yy4yOC0uNzgsMTIuNC0zNS45LDI2LjkyLTc4LjA2LDE1LjMxLTQ0LjQ1LDI2LjUxLTc1LjUzLDI2LjY1LTc0LC4xNCwxLjQ2LDIuMDQsMzQuODIsNC4yMiw3NC4xNSwyLjE4LDM5LjMyLDQuMjMsNzQuNTMsNC41Niw3OC4yNS4zMiwzLjcxLjIzLDYuNzMtLjIyLDYuNzItMS41NS0uMDYtMTYuODQtOC40OS0yMC41Ni0xMS4zMy00LjQ0LTMuNDEtNi4yNy0zLjI5LTE4Ljc4LDEuMjItOS44MSwzLjU0LTIzLjY1LDUuMzktMjIuNzksMy4wNVpNMjI5LjgsMzMuNjVjMC01LjQ5LDIuNzQtMTAuMjMsNy45Mi0xMy43Myw5LjgxLTYuNjEsMjQuMDgsMS41MiwyNC4wOCwxMy43MywwLDUuNDktMi43NCwxMC4yMy03LjkyLDEzLjczLTkuODEsNi42MS0yNC4wOC0xLjUyLTI0LjA4LTEzLjczWm0tMTIuNzUsMjE1Ljc1Yy4yNS0uNjksNi43MS0zNy4zNiwxNC4zNS04MS41LDcuNjUtNDQuMTQsMTQuMTItODAuMjUsMTQuNC04MC4yNS41NywwLDI4LjksMTYyLjMsMjguNDMsMTYyLjg1LS43LjgyLTE0Ljg1LTcuNjItMTkuMy0xMS41Mi03LjgtNi44Mi0xMC4xNi02LjczLTE5LjEzLjc0LTIuNDcsMi4wNi03LjQ2LDUuMzYtMTEuMDgsNy4zNC03LjEyLDMuODgtOC4zOCw0LjI2LTcuNjcsMi4zNFptLTUwLjM1LTczLjljMTQuNTIsNDIuMTYsMjYuNjQsNzcuMjgsMjYuOTIsNzguMDYuODYsMi4zNC0xMi45OC40OS0yMi43OS0zLjA1LTEyLjg4LTQuNjQtMTQuMTQtNC42OC0xOS43NS0uNTktMi42MywxLjkyLTguMDMsNS4xMS0xMi4wMSw3LjExaDBjLTMuOTcsMS45OS03LjQ4LDMuNjItNy44MSwzLjYycy0uMzEtMy4wNCwwLTYuNzVjLjMzLTMuNzIsMi4zOC0zOC45Myw0LjU2LTc4LjI1LDIuMTgtMzkuMzMsNC4wOC03Mi42OSw0LjIyLTc0LjE1LjE0LTEuNTMsMTEuMzQsMjkuNTUsMjYuNjUsNzRabS00OC45LTEyMS44NWMwLTEyLjIxLDE0LjI3LTIwLjM0LDI0LjA4LTEzLjczLDEwLjY0LDcuMTcsMTAuNjQsMjAuMjgsMCwyNy40NS05LjgxLDYuNjEtMjQuMDgtMS41Mi0yNC4wOC0xMy43M1ptLTc2LjAyLDUzLjI0Yy0xLjkxLjk3LTUuNTEsMS43NS03Ljk4LDEuNzVzLTYuMDctLjc4LTcuOTgtMS43NWMtMTAuODItNS40My0xMC44Mi0yMi4wNiwwLTI3LjQ5LDQuNDUtMi4yNCwxMS41MS0yLjI0LDE1Ljk2LDAsMTAuODIsNS40MywxMC44MiwyMi4wNiwwLDI3LjQ5Wm0yNC4wMSwxNjguMDdjMC0uNDUtMy41OS0yOS4zNy03Ljk3LTY0LjI2LTQuMzgtMzQuOS03LjgzLTYzLjU4LTcuNjYtNjMuNzQuMjQtLjI1LDU1Ljg5LDExMy42NCw1Ny4zNiwxMTcuNDQuNjMsMS41OS04LjA0LDEuNjgtMTcuNzQuMTctNS40NC0uODQtNy40NC0uNzktOS40My4yNS0xLjM5LjczLTUuMjMsMy40OS04LjU0LDYuMTQtMy4zMSwyLjY1LTYuMDIsNC40NS02LjAzLDRabTI5OC44OCwxNTkuNDdjLTExLjM3LDMuODgtMjAuMDEsNS44OS0zMy44Nyw3LjktOC40NSwxLjIyLTIzLjY3LDEuNTYtNzgsMS43MS0zNy4xMi4xMS02OS45OC4wNy03My0uMDktMTkuNDEtMS4wMi0zNy43Mi00LjMxLTUyLjg3LTkuNWwtOS4zNi0zLjIxLDYuODYtMi4zM2MxMS4yLTMuNzksMzcuNzktMTAuMDQsNTMuODctMTIuNjYsMjQuOS00LjA2LDM4LjQzLTUuMDgsNjcuNS01LjA4czQyLjYsMS4wMiw2Ny41LDUuMDhjMTYuMDgsMi42Miw0Mi42Nyw4Ljg3LDUzLjg3LDEyLjY2bDYuODYsMi4zMy05LjM2LDMuMTlabTYuODgtMjIuMzhjLTE5LjkzLTYuOC01OC40My0xNC42OS04NS43NS0xNy41Ni0xNi4yOS0xLjcxLTYzLjcxLTEuNzEtODAsMC0xOS42NCwyLjA3LTQwLjk1LDUuODEtNjAuNSwxMC42NC05LjksMi40NS0yMS4yNiw1LjU2LTI1LjI1LDYuOTItMy45OSwxLjM2LTcuMjUsMi4zLTcuMjUsMi4wN3MyLjE5LTUuNDgsNC44Ny0xMS42OWM1Ljc5LTEzLjQzLDQuODctMTIuNzgsMzAuMzUtMjEuMjMsMTcuMzUtNS43NiwzNy4yNy0xMC4yNCw1OC43OC0xMy4yMywxNy41My0yLjQzLDYwLjQ3LTIuNDMsNzgsMCwyMS41MSwyLjk5LDQxLjQzLDcuNDcsNTguNzgsMTMuMjMsMjUuNDgsOC40NSwyNC41Niw3LjgsMzAuMzUsMjEuMjMsMi42OCw2LjIxLDQuODcsMTEuNDcsNC44NywxMS42OXMtMy4yNi0uNzEtNy4yNS0yLjA3Wm02LjA0LTU1LjUzYy0zLjI3LDcuNS02LjE4LDE0LjE2LTYuNDUsMTQuODEtLjM2Ljg1LTEuNy42Ni00Ljg3LS43LTIuNC0xLjAzLTExLjI1LTQuMS0xOS42Ny02LjgyLTY2LjE4LTIxLjQyLTEzNS40Mi0yMS40Mi0yMDEuNiwwaDBjLTguNDIsMi43Mi0xNy4yNyw1Ljc5LTE5LjY3LDYuODItMy4xNywxLjM2LTQuNTEsMS41NS00Ljg3LjctLjI3LS42NS0zLjE4LTcuMzEtNi40NS0xNC44MWwtNS45NS0xMy42MiwzLjYyLTEuMTZjMjkuMjgtOS4zNiw1MS43OS0xNC42Niw3Ni42Mi0xOC4wMiw2NS44NC04LjkzLDEyNC42NS0zLjQsMTkxLjYyLDE4LjAybDMuNjIsMS4xNi01Ljk1LDEzLjYyWm0xNS4zMS0yOS42MmMtLjM5LjQyLTQuMDYtLjM5LTguMTYtMS44LTkwLjE3LTMxLjAxLTE4Ny43MS0zMS4wMi0yNzcuODctLjAxLTQuMDgsMS40MS03LjQ3LDIuNTYtNy41NCwyLjU2LS4zMiwwLTI3LjA2LTMzLjE5LTI3LjIzLTMzLjgtLjExLS4zOSwzLTMuMjEsNi45MS02LjI4bDcuMTEtNS41Nyw1LjU5LjkyYzE3LjM0LDIuODUsNDIuODUtMi43NSw2MS4zOC0xMy40OGw2Ljc5LTMuOTMsNy43MSwyLjUzYzExLjMsMy43MSwyMC4zMSw0Ljk3LDMwLjY2LDQuMjksMTQuODYtLjk4LDI5LjU1LTUuOTksNDIuMy0xNC40MWw1LjI1LTMuNDcsNS4yNSwzLjQ3YzIyLjUyLDE0Ljg4LDQ3Ljc5LDE4LjM4LDcyLjk2LDEwLjEybDcuNzEtMi41Myw2Ljc5LDMuOTNjMTguNTMsMTAuNzMsNDQuMDQsMTYuMzMsNjEuMzgsMTMuNDhsNS41OS0uOTIsNy4xMSw1LjU3YzMuOTEsMy4wNyw3LjEyLDUuOCw3LjE0LDYuMDguMDIuNC0yNC40LDMwLjY4LTI2LjgzLDMzLjI1Wm00MC44NC0xMTUuNzVjLTQuNCwzNS4xNC04LjEsNjMuOTktOC4yMyw2NC4xMi0uMTIuMTItMy4zNC0yLjMxLTcuMTYtNS40MS03Ljc0LTYuMjgtNi43NC02LjA5LTI0LjQ3LTQuNzEtOC43OS42OS0xMC4zMy42LTkuODctLjU5LDEuNTItMy44Nyw1Ny4xOC0xMTcuODUsNTcuNDQtMTE3LjYuMTYuMTYtMy4zMSwyOS4wNC03LjcxLDY0LjE5Wm0zMi4wNC0xMDQuMjZjLTEuOTEuOTctNS41LDEuNzUtNy45OCwxLjc1LTkuNTMsMC0xNi02LjI3LTE2LTE1LjQ5czYuNDctMTUuNSwxNi0xNS41LDE2LDYuMjcsMTYsMTUuNWMwLDYuMjctMi44NCwxMS4xNC04LjAyLDEzLjc0WiIvPiYjeGE7ICA8L2c+JiN4YTs8L3N2Zz4=;" vertex="1" parent="1">
          <mxGeometry x="315" y="66.25" width="40" height="37.5" as="geometry" />
        </mxCell>
        <mxCell id="0axwFl1xxEk5szE2pngX-84" value="" style="shape=image;imageAspect=0;aspect=fixed;verticalLabelPosition=bottom;verticalAlign=top;image=data:image/svg+xml,PHN2ZyB4bWxucz0iaHR0cDovL3d3dy53My5vcmcvMjAwMC9zdmciIHZpZXdCb3g9IjAgMCA0OTEuNTkgNDYyLjEiIGRhdGEtbmFtZT0iTGF5ZXIgMiIgaWQ9IkxheWVyXzIiPiYjeGE7ICA8ZyBpZD0ic3ZnMjQ0MyI+JiN4YTsgICAgPHBhdGggZD0ibTQ4Ny44NCw3OC4wOWMtNS43MS0xMS42MS0xNi4xOC0xNy44Mi0zMC4wNC0xNy44MnMtMjQuMzMsNi4yMS0zMC4wNCwxNy44MmMtNi42MywxMy40Ni00LjY3LDI1LjY1LDYuNDMsNDAuMDguNTguNzUtOS4yNSwyMS45OS0yNy45OSw2MC41MmwtMjguODgsNTkuMzctNC4yLTcyLjk1Yy0yLjMtNDAuMTItNC4yMi03NC40MS00LjI1LTc2LjE4LS4wNi0yLjc1LjQ5LTMuNTIsMy42OC01LjE3LDYuNzMtMy40NywxMi4wMy04LjksMTUuNDYtMTUuODgsMi44NC01Ljc3LDMuMjktNy43MiwzLjI5LTE0LjIzcy0uNDUtOC40Ni0zLjI5LTE0LjIzYy0zLjc2LTcuNjMtOS4wNi0xMi43Ni0xNy4yMS0xNi42NC03Ljc5LTMuNzEtMTguMjEtMy43MS0yNiwwLTE4LjIzLDguNjgtMjUuNjEsMjguMDMtMTcuMjEsNDUuMSwxLjk0LDMuOTMsNC45Niw4LjExLDcuMzMsMTAuMTRsNC4wNCwzLjQ1LTI0LjgzLDcyLjA3Yy0xMy42NiwzOS42NC0yNS4wOCw3Mi4wOC0yNS4zNyw3Mi4wOS0uMy4wMS02Ljg2LTM2LjMyLTE0LjU3LTgwLjcybC0xNC4wMi04MC43NCw0LjI5LTIuODRjOS41Ny02LjM0LDE0LjgyLTE2LjE1LDE0LjgzLTI3LjcxLjAxLTYuNDktLjQ0LTguNDQtMy4yOC0xNC4yMS0zLjc2LTcuNjMtOS4wNi0xMi43Ni0xNy4yMS0xNi42NC03Ljc5LTMuNzEtMTguMjEtMy43MS0yNiwwLTEzLjA4LDYuMjMtMjAuNTEsMTcuNC0yMC40OSwzMC44NS4wMSwxMS41NSw1LjI2LDIxLjM3LDE0LjgzLDI3LjcxbDQuMjksMi44NC0xNC4wMiw4MC43NGMtNy43MSw0NC40LTE0LjI3LDgwLjczLTE0LjU3LDgwLjcyLS4yOS0uMDEtMTEuNzEtMzIuNDUtMjUuMzctNzIuMDlsLTI0LjgzLTcyLjA3LDQuMDQtMy40NWMyLjM3LTIuMDMsNS4zOS02LjIxLDcuMzMtMTAuMTQsMi44NC01Ljc3LDMuMjktNy43MiwzLjI5LTE0LjIzcy0uNDUtOC40Ni0zLjI5LTE0LjIzYy0xLjk1LTMuOTYtNS4wMS04LjE4LTcuNS0xMC4zNS0xMC41OC05LjIyLTI0LjQzLTExLjY2LTM1LjcxLTYuMjktMTguMjMsOC42OC0yNS42MSwyOC4wMy0xNy4yMSw0NS4xLDMuNDMsNi45Nyw4LjczLDEyLjQsMTUuNDYsMTUuODgsMy4xOSwxLjY1LDMuNzQsMi40MiwzLjY4LDUuMTctLjAzLDEuNzctMS45NSwzNi4wNi00LjI1LDc2LjE4bC00LjIsNzIuOTUtMjguODgtNTkuMzdjLTE4Ljc0LTM4LjUzLTI4LjU3LTU5Ljc3LTI3Ljk5LTYwLjUyLDExLjEtMTQuNDMsMTMuMDYtMjYuNjIsNi40My00MC4wOC01LjcyLTExLjYxLTE2LjE4LTE3LjgyLTMwLjA0LTE3Ljgycy0yNC4zMyw2LjIxLTMwLjA0LDE3LjgyYy01LjU4LDExLjM0LTQuOTMsMjIuOTQsMS45LDMzLjY5LDMuODcsNi4wOCw4Ljk0LDkuODIsMTcuMDIsMTIuNTRsNi42MSwyLjIyLDEwLjU3LDg0LjQ4YzUuODEsNDYuNDYsMTEuMDMsODUuMDgsMTEuNTksODUuODFzOS4yMywxMS4zNywxOS4yNiwyMy42NWwxOC4yNCwyMi4zMyw4LjkyLDIwLjQ5LDguOTIsMjAuNDgtOS40OSwyMS43OWMtNS4yMiwxMS45OS05LjQ5LDIyLjkyLTkuNDksMjQuMzEsMCw0LjA5LDMuMjQsNy4wNSwxMy42NSwxMi40OCwyMS4zMiwxMS4xLDQ5LjE3LDE4LjA3LDc4LjM1LDE5LjZoMGMzLjAzLjE2LDM1Ljg4LjIsNzMsLjA5LDU0LjQ1LS4xNSw2OS41NC0uNDksNzguMDYtMS43MiwyMi42OC0zLjI4LDQyLjc3LTkuMzcsNTkuMjktMTcuOTcsMTAuNDEtNS40MywxMy42NS04LjM5LDEzLjY1LTEyLjQ4LDAtMS4zOS00LjI3LTEyLjMyLTkuNDktMjQuMzFsLTkuNDktMjEuNzksOC45Mi0yMC40OCw4LjkyLTIwLjQ5LDE4LjI0LTIyLjMzYzEwLjAzLTEyLjI4LDE4LjctMjIuOTIsMTkuMjYtMjMuNjUuNTYtLjczLDUuNzctMzkuMzUsMTEuNTktODUuODFsMTAuNTctODQuNDgsNi42MS0yLjIyYzguMDgtMi43MiwxMy4xNS02LjQ2LDE3LjAyLTEyLjU0LDYuODItMTAuNzUsNy40OC0yMi4zNSwxLjg5LTMzLjY5Wm0tMTIxLjk2LTM4LjE2YzUuMTgsMy40OSw3LjkyLDguMjQsNy45MiwxMy43M3MtMi43NCwxMC4yMy03LjkyLDEzLjczYy05LjgxLDYuNjEtMjQuMDgtMS41Mi0yNC4wOC0xMy43M3MxNC4yNy0yMC4zNCwyNC4wOC0xMy43M1ptLTY3LjksMjEzLjY0Yy4yOC0uNzgsMTIuNC0zNS45LDI2LjkyLTc4LjA2LDE1LjMxLTQ0LjQ1LDI2LjUxLTc1LjUzLDI2LjY1LTc0LC4xNCwxLjQ2LDIuMDQsMzQuODIsNC4yMiw3NC4xNSwyLjE4LDM5LjMyLDQuMjMsNzQuNTMsNC41Niw3OC4yNS4zMiwzLjcxLjIzLDYuNzMtLjIyLDYuNzItMS41NS0uMDYtMTYuODQtOC40OS0yMC41Ni0xMS4zMy00LjQ0LTMuNDEtNi4yNy0zLjI5LTE4Ljc4LDEuMjItOS44MSwzLjU0LTIzLjY1LDUuMzktMjIuNzksMy4wNVpNMjI5LjgsMzMuNjVjMC01LjQ5LDIuNzQtMTAuMjMsNy45Mi0xMy43Myw5LjgxLTYuNjEsMjQuMDgsMS41MiwyNC4wOCwxMy43MywwLDUuNDktMi43NCwxMC4yMy03LjkyLDEzLjczLTkuODEsNi42MS0yNC4wOC0xLjUyLTI0LjA4LTEzLjczWm0tMTIuNzUsMjE1Ljc1Yy4yNS0uNjksNi43MS0zNy4zNiwxNC4zNS04MS41LDcuNjUtNDQuMTQsMTQuMTItODAuMjUsMTQuNC04MC4yNS41NywwLDI4LjksMTYyLjMsMjguNDMsMTYyLjg1LS43LjgyLTE0Ljg1LTcuNjItMTkuMy0xMS41Mi03LjgtNi44Mi0xMC4xNi02LjczLTE5LjEzLjc0LTIuNDcsMi4wNi03LjQ2LDUuMzYtMTEuMDgsNy4zNC03LjEyLDMuODgtOC4zOCw0LjI2LTcuNjcsMi4zNFptLTUwLjM1LTczLjljMTQuNTIsNDIuMTYsMjYuNjQsNzcuMjgsMjYuOTIsNzguMDYuODYsMi4zNC0xMi45OC40OS0yMi43OS0zLjA1LTEyLjg4LTQuNjQtMTQuMTQtNC42OC0xOS43NS0uNTktMi42MywxLjkyLTguMDMsNS4xMS0xMi4wMSw3LjExaDBjLTMuOTcsMS45OS03LjQ4LDMuNjItNy44MSwzLjYycy0uMzEtMy4wNCwwLTYuNzVjLjMzLTMuNzIsMi4zOC0zOC45Myw0LjU2LTc4LjI1LDIuMTgtMzkuMzMsNC4wOC03Mi42OSw0LjIyLTc0LjE1LjE0LTEuNTMsMTEuMzQsMjkuNTUsMjYuNjUsNzRabS00OC45LTEyMS44NWMwLTEyLjIxLDE0LjI3LTIwLjM0LDI0LjA4LTEzLjczLDEwLjY0LDcuMTcsMTAuNjQsMjAuMjgsMCwyNy40NS05LjgxLDYuNjEtMjQuMDgtMS41Mi0yNC4wOC0xMy43M1ptLTc2LjAyLDUzLjI0Yy0xLjkxLjk3LTUuNTEsMS43NS03Ljk4LDEuNzVzLTYuMDctLjc4LTcuOTgtMS43NWMtMTAuODItNS40My0xMC44Mi0yMi4wNiwwLTI3LjQ5LDQuNDUtMi4yNCwxMS41MS0yLjI0LDE1Ljk2LDAsMTAuODIsNS40MywxMC44MiwyMi4wNiwwLDI3LjQ5Wm0yNC4wMSwxNjguMDdjMC0uNDUtMy41OS0yOS4zNy03Ljk3LTY0LjI2LTQuMzgtMzQuOS03LjgzLTYzLjU4LTcuNjYtNjMuNzQuMjQtLjI1LDU1Ljg5LDExMy42NCw1Ny4zNiwxMTcuNDQuNjMsMS41OS04LjA0LDEuNjgtMTcuNzQuMTctNS40NC0uODQtNy40NC0uNzktOS40My4yNS0xLjM5LjczLTUuMjMsMy40OS04LjU0LDYuMTQtMy4zMSwyLjY1LTYuMDIsNC40NS02LjAzLDRabTI5OC44OCwxNTkuNDdjLTExLjM3LDMuODgtMjAuMDEsNS44OS0zMy44Nyw3LjktOC40NSwxLjIyLTIzLjY3LDEuNTYtNzgsMS43MS0zNy4xMi4xMS02OS45OC4wNy03My0uMDktMTkuNDEtMS4wMi0zNy43Mi00LjMxLTUyLjg3LTkuNWwtOS4zNi0zLjIxLDYuODYtMi4zM2MxMS4yLTMuNzksMzcuNzktMTAuMDQsNTMuODctMTIuNjYsMjQuOS00LjA2LDM4LjQzLTUuMDgsNjcuNS01LjA4czQyLjYsMS4wMiw2Ny41LDUuMDhjMTYuMDgsMi42Miw0Mi42Nyw4Ljg3LDUzLjg3LDEyLjY2bDYuODYsMi4zMy05LjM2LDMuMTlabTYuODgtMjIuMzhjLTE5LjkzLTYuOC01OC40My0xNC42OS04NS43NS0xNy41Ni0xNi4yOS0xLjcxLTYzLjcxLTEuNzEtODAsMC0xOS42NCwyLjA3LTQwLjk1LDUuODEtNjAuNSwxMC42NC05LjksMi40NS0yMS4yNiw1LjU2LTI1LjI1LDYuOTItMy45OSwxLjM2LTcuMjUsMi4zLTcuMjUsMi4wN3MyLjE5LTUuNDgsNC44Ny0xMS42OWM1Ljc5LTEzLjQzLDQuODctMTIuNzgsMzAuMzUtMjEuMjMsMTcuMzUtNS43NiwzNy4yNy0xMC4yNCw1OC43OC0xMy4yMywxNy41My0yLjQzLDYwLjQ3LTIuNDMsNzgsMCwyMS41MSwyLjk5LDQxLjQzLDcuNDcsNTguNzgsMTMuMjMsMjUuNDgsOC40NSwyNC41Niw3LjgsMzAuMzUsMjEuMjMsMi42OCw2LjIxLDQuODcsMTEuNDcsNC44NywxMS42OXMtMy4yNi0uNzEtNy4yNS0yLjA3Wm02LjA0LTU1LjUzYy0zLjI3LDcuNS02LjE4LDE0LjE2LTYuNDUsMTQuODEtLjM2Ljg1LTEuNy42Ni00Ljg3LS43LTIuNC0xLjAzLTExLjI1LTQuMS0xOS42Ny02LjgyLTY2LjE4LTIxLjQyLTEzNS40Mi0yMS40Mi0yMDEuNiwwaDBjLTguNDIsMi43Mi0xNy4yNyw1Ljc5LTE5LjY3LDYuODItMy4xNywxLjM2LTQuNTEsMS41NS00Ljg3LjctLjI3LS42NS0zLjE4LTcuMzEtNi40NS0xNC44MWwtNS45NS0xMy42MiwzLjYyLTEuMTZjMjkuMjgtOS4zNiw1MS43OS0xNC42Niw3Ni42Mi0xOC4wMiw2NS44NC04LjkzLDEyNC42NS0zLjQsMTkxLjYyLDE4LjAybDMuNjIsMS4xNi01Ljk1LDEzLjYyWm0xNS4zMS0yOS42MmMtLjM5LjQyLTQuMDYtLjM5LTguMTYtMS44LTkwLjE3LTMxLjAxLTE4Ny43MS0zMS4wMi0yNzcuODctLjAxLTQuMDgsMS40MS03LjQ3LDIuNTYtNy41NCwyLjU2LS4zMiwwLTI3LjA2LTMzLjE5LTI3LjIzLTMzLjgtLjExLS4zOSwzLTMuMjEsNi45MS02LjI4bDcuMTEtNS41Nyw1LjU5LjkyYzE3LjM0LDIuODUsNDIuODUtMi43NSw2MS4zOC0xMy40OGw2Ljc5LTMuOTMsNy43MSwyLjUzYzExLjMsMy43MSwyMC4zMSw0Ljk3LDMwLjY2LDQuMjksMTQuODYtLjk4LDI5LjU1LTUuOTksNDIuMy0xNC40MWw1LjI1LTMuNDcsNS4yNSwzLjQ3YzIyLjUyLDE0Ljg4LDQ3Ljc5LDE4LjM4LDcyLjk2LDEwLjEybDcuNzEtMi41Myw2Ljc5LDMuOTNjMTguNTMsMTAuNzMsNDQuMDQsMTYuMzMsNjEuMzgsMTMuNDhsNS41OS0uOTIsNy4xMSw1LjU3YzMuOTEsMy4wNyw3LjEyLDUuOCw3LjE0LDYuMDguMDIuNC0yNC40LDMwLjY4LTI2LjgzLDMzLjI1Wm00MC44NC0xMTUuNzVjLTQuNCwzNS4xNC04LjEsNjMuOTktOC4yMyw2NC4xMi0uMTIuMTItMy4zNC0yLjMxLTcuMTYtNS40MS03Ljc0LTYuMjgtNi43NC02LjA5LTI0LjQ3LTQuNzEtOC43OS42OS0xMC4zMy42LTkuODctLjU5LDEuNTItMy44Nyw1Ny4xOC0xMTcuODUsNTcuNDQtMTE3LjYuMTYuMTYtMy4zMSwyOS4wNC03LjcxLDY0LjE5Wm0zMi4wNC0xMDQuMjZjLTEuOTEuOTctNS41LDEuNzUtNy45OCwxLjc1LTkuNTMsMC0xNi02LjI3LTE2LTE1LjQ5czYuNDctMTUuNSwxNi0xNS41LDE2LDYuMjcsMTYsMTUuNWMwLDYuMjctMi44NCwxMS4xNC04LjAyLDEzLjc0WiIvPiYjeGE7ICA8L2c+JiN4YTs8L3N2Zz4=;" vertex="1" parent="1">
          <mxGeometry x="265" y="166.25" width="40" height="37.5" as="geometry" />
        </mxCell>
        <mxCell id="0axwFl1xxEk5szE2pngX-85" value="" style="shape=image;imageAspect=0;aspect=fixed;verticalLabelPosition=bottom;verticalAlign=top;image=data:image/svg+xml,PHN2ZyB4bWxucz0iaHR0cDovL3d3dy53My5vcmcvMjAwMC9zdmciIHZpZXdCb3g9IjAgMCA0OTEuNTkgNDYyLjEiIGRhdGEtbmFtZT0iTGF5ZXIgMiIgaWQ9IkxheWVyXzIiPiYjeGE7ICA8ZyBpZD0ic3ZnMjQ0MyI+JiN4YTsgICAgPHBhdGggZD0ibTQ4Ny44NCw3OC4wOWMtNS43MS0xMS42MS0xNi4xOC0xNy44Mi0zMC4wNC0xNy44MnMtMjQuMzMsNi4yMS0zMC4wNCwxNy44MmMtNi42MywxMy40Ni00LjY3LDI1LjY1LDYuNDMsNDAuMDguNTguNzUtOS4yNSwyMS45OS0yNy45OSw2MC41MmwtMjguODgsNTkuMzctNC4yLTcyLjk1Yy0yLjMtNDAuMTItNC4yMi03NC40MS00LjI1LTc2LjE4LS4wNi0yLjc1LjQ5LTMuNTIsMy42OC01LjE3LDYuNzMtMy40NywxMi4wMy04LjksMTUuNDYtMTUuODgsMi44NC01Ljc3LDMuMjktNy43MiwzLjI5LTE0LjIzcy0uNDUtOC40Ni0zLjI5LTE0LjIzYy0zLjc2LTcuNjMtOS4wNi0xMi43Ni0xNy4yMS0xNi42NC03Ljc5LTMuNzEtMTguMjEtMy43MS0yNiwwLTE4LjIzLDguNjgtMjUuNjEsMjguMDMtMTcuMjEsNDUuMSwxLjk0LDMuOTMsNC45Niw4LjExLDcuMzMsMTAuMTRsNC4wNCwzLjQ1LTI0LjgzLDcyLjA3Yy0xMy42NiwzOS42NC0yNS4wOCw3Mi4wOC0yNS4zNyw3Mi4wOS0uMy4wMS02Ljg2LTM2LjMyLTE0LjU3LTgwLjcybC0xNC4wMi04MC43NCw0LjI5LTIuODRjOS41Ny02LjM0LDE0LjgyLTE2LjE1LDE0LjgzLTI3LjcxLjAxLTYuNDktLjQ0LTguNDQtMy4yOC0xNC4yMS0zLjc2LTcuNjMtOS4wNi0xMi43Ni0xNy4yMS0xNi42NC03Ljc5LTMuNzEtMTguMjEtMy43MS0yNiwwLTEzLjA4LDYuMjMtMjAuNTEsMTcuNC0yMC40OSwzMC44NS4wMSwxMS41NSw1LjI2LDIxLjM3LDE0LjgzLDI3LjcxbDQuMjksMi44NC0xNC4wMiw4MC43NGMtNy43MSw0NC40LTE0LjI3LDgwLjczLTE0LjU3LDgwLjcyLS4yOS0uMDEtMTEuNzEtMzIuNDUtMjUuMzctNzIuMDlsLTI0LjgzLTcyLjA3LDQuMDQtMy40NWMyLjM3LTIuMDMsNS4zOS02LjIxLDcuMzMtMTAuMTQsMi44NC01Ljc3LDMuMjktNy43MiwzLjI5LTE0LjIzcy0uNDUtOC40Ni0zLjI5LTE0LjIzYy0xLjk1LTMuOTYtNS4wMS04LjE4LTcuNS0xMC4zNS0xMC41OC05LjIyLTI0LjQzLTExLjY2LTM1LjcxLTYuMjktMTguMjMsOC42OC0yNS42MSwyOC4wMy0xNy4yMSw0NS4xLDMuNDMsNi45Nyw4LjczLDEyLjQsMTUuNDYsMTUuODgsMy4xOSwxLjY1LDMuNzQsMi40MiwzLjY4LDUuMTctLjAzLDEuNzctMS45NSwzNi4wNi00LjI1LDc2LjE4bC00LjIsNzIuOTUtMjguODgtNTkuMzdjLTE4Ljc0LTM4LjUzLTI4LjU3LTU5Ljc3LTI3Ljk5LTYwLjUyLDExLjEtMTQuNDMsMTMuMDYtMjYuNjIsNi40My00MC4wOC01LjcyLTExLjYxLTE2LjE4LTE3LjgyLTMwLjA0LTE3Ljgycy0yNC4zMyw2LjIxLTMwLjA0LDE3LjgyYy01LjU4LDExLjM0LTQuOTMsMjIuOTQsMS45LDMzLjY5LDMuODcsNi4wOCw4Ljk0LDkuODIsMTcuMDIsMTIuNTRsNi42MSwyLjIyLDEwLjU3LDg0LjQ4YzUuODEsNDYuNDYsMTEuMDMsODUuMDgsMTEuNTksODUuODFzOS4yMywxMS4zNywxOS4yNiwyMy42NWwxOC4yNCwyMi4zMyw4LjkyLDIwLjQ5LDguOTIsMjAuNDgtOS40OSwyMS43OWMtNS4yMiwxMS45OS05LjQ5LDIyLjkyLTkuNDksMjQuMzEsMCw0LjA5LDMuMjQsNy4wNSwxMy42NSwxMi40OCwyMS4zMiwxMS4xLDQ5LjE3LDE4LjA3LDc4LjM1LDE5LjZoMGMzLjAzLjE2LDM1Ljg4LjIsNzMsLjA5LDU0LjQ1LS4xNSw2OS41NC0uNDksNzguMDYtMS43MiwyMi42OC0zLjI4LDQyLjc3LTkuMzcsNTkuMjktMTcuOTcsMTAuNDEtNS40MywxMy42NS04LjM5LDEzLjY1LTEyLjQ4LDAtMS4zOS00LjI3LTEyLjMyLTkuNDktMjQuMzFsLTkuNDktMjEuNzksOC45Mi0yMC40OCw4LjkyLTIwLjQ5LDE4LjI0LTIyLjMzYzEwLjAzLTEyLjI4LDE4LjctMjIuOTIsMTkuMjYtMjMuNjUuNTYtLjczLDUuNzctMzkuMzUsMTEuNTktODUuODFsMTAuNTctODQuNDgsNi42MS0yLjIyYzguMDgtMi43MiwxMy4xNS02LjQ2LDE3LjAyLTEyLjU0LDYuODItMTAuNzUsNy40OC0yMi4zNSwxLjg5LTMzLjY5Wm0tMTIxLjk2LTM4LjE2YzUuMTgsMy40OSw3LjkyLDguMjQsNy45MiwxMy43M3MtMi43NCwxMC4yMy03LjkyLDEzLjczYy05LjgxLDYuNjEtMjQuMDgtMS41Mi0yNC4wOC0xMy43M3MxNC4yNy0yMC4zNCwyNC4wOC0xMy43M1ptLTY3LjksMjEzLjY0Yy4yOC0uNzgsMTIuNC0zNS45LDI2LjkyLTc4LjA2LDE1LjMxLTQ0LjQ1LDI2LjUxLTc1LjUzLDI2LjY1LTc0LC4xNCwxLjQ2LDIuMDQsMzQuODIsNC4yMiw3NC4xNSwyLjE4LDM5LjMyLDQuMjMsNzQuNTMsNC41Niw3OC4yNS4zMiwzLjcxLjIzLDYuNzMtLjIyLDYuNzItMS41NS0uMDYtMTYuODQtOC40OS0yMC41Ni0xMS4zMy00LjQ0LTMuNDEtNi4yNy0zLjI5LTE4Ljc4LDEuMjItOS44MSwzLjU0LTIzLjY1LDUuMzktMjIuNzksMy4wNVpNMjI5LjgsMzMuNjVjMC01LjQ5LDIuNzQtMTAuMjMsNy45Mi0xMy43Myw5LjgxLTYuNjEsMjQuMDgsMS41MiwyNC4wOCwxMy43MywwLDUuNDktMi43NCwxMC4yMy03LjkyLDEzLjczLTkuODEsNi42MS0yNC4wOC0xLjUyLTI0LjA4LTEzLjczWm0tMTIuNzUsMjE1Ljc1Yy4yNS0uNjksNi43MS0zNy4zNiwxNC4zNS04MS41LDcuNjUtNDQuMTQsMTQuMTItODAuMjUsMTQuNC04MC4yNS41NywwLDI4LjksMTYyLjMsMjguNDMsMTYyLjg1LS43LjgyLTE0Ljg1LTcuNjItMTkuMy0xMS41Mi03LjgtNi44Mi0xMC4xNi02LjczLTE5LjEzLjc0LTIuNDcsMi4wNi03LjQ2LDUuMzYtMTEuMDgsNy4zNC03LjEyLDMuODgtOC4zOCw0LjI2LTcuNjcsMi4zNFptLTUwLjM1LTczLjljMTQuNTIsNDIuMTYsMjYuNjQsNzcuMjgsMjYuOTIsNzguMDYuODYsMi4zNC0xMi45OC40OS0yMi43OS0zLjA1LTEyLjg4LTQuNjQtMTQuMTQtNC42OC0xOS43NS0uNTktMi42MywxLjkyLTguMDMsNS4xMS0xMi4wMSw3LjExaDBjLTMuOTcsMS45OS03LjQ4LDMuNjItNy44MSwzLjYycy0uMzEtMy4wNCwwLTYuNzVjLjMzLTMuNzIsMi4zOC0zOC45Myw0LjU2LTc4LjI1LDIuMTgtMzkuMzMsNC4wOC03Mi42OSw0LjIyLTc0LjE1LjE0LTEuNTMsMTEuMzQsMjkuNTUsMjYuNjUsNzRabS00OC45LTEyMS44NWMwLTEyLjIxLDE0LjI3LTIwLjM0LDI0LjA4LTEzLjczLDEwLjY0LDcuMTcsMTAuNjQsMjAuMjgsMCwyNy40NS05LjgxLDYuNjEtMjQuMDgtMS41Mi0yNC4wOC0xMy43M1ptLTc2LjAyLDUzLjI0Yy0xLjkxLjk3LTUuNTEsMS43NS03Ljk4LDEuNzVzLTYuMDctLjc4LTcuOTgtMS43NWMtMTAuODItNS40My0xMC44Mi0yMi4wNiwwLTI3LjQ5LDQuNDUtMi4yNCwxMS41MS0yLjI0LDE1Ljk2LDAsMTAuODIsNS40MywxMC44MiwyMi4wNiwwLDI3LjQ5Wm0yNC4wMSwxNjguMDdjMC0uNDUtMy41OS0yOS4zNy03Ljk3LTY0LjI2LTQuMzgtMzQuOS03LjgzLTYzLjU4LTcuNjYtNjMuNzQuMjQtLjI1LDU1Ljg5LDExMy42NCw1Ny4zNiwxMTcuNDQuNjMsMS41OS04LjA0LDEuNjgtMTcuNzQuMTctNS40NC0uODQtNy40NC0uNzktOS40My4yNS0xLjM5LjczLTUuMjMsMy40OS04LjU0LDYuMTQtMy4zMSwyLjY1LTYuMDIsNC40NS02LjAzLDRabTI5OC44OCwxNTkuNDdjLTExLjM3LDMuODgtMjAuMDEsNS44OS0zMy44Nyw3LjktOC40NSwxLjIyLTIzLjY3LDEuNTYtNzgsMS43MS0zNy4xMi4xMS02OS45OC4wNy03My0uMDktMTkuNDEtMS4wMi0zNy43Mi00LjMxLTUyLjg3LTkuNWwtOS4zNi0zLjIxLDYuODYtMi4zM2MxMS4yLTMuNzksMzcuNzktMTAuMDQsNTMuODctMTIuNjYsMjQuOS00LjA2LDM4LjQzLTUuMDgsNjcuNS01LjA4czQyLjYsMS4wMiw2Ny41LDUuMDhjMTYuMDgsMi42Miw0Mi42Nyw4Ljg3LDUzLjg3LDEyLjY2bDYuODYsMi4zMy05LjM2LDMuMTlabTYuODgtMjIuMzhjLTE5LjkzLTYuOC01OC40My0xNC42OS04NS43NS0xNy41Ni0xNi4yOS0xLjcxLTYzLjcxLTEuNzEtODAsMC0xOS42NCwyLjA3LTQwLjk1LDUuODEtNjAuNSwxMC42NC05LjksMi40NS0yMS4yNiw1LjU2LTI1LjI1LDYuOTItMy45OSwxLjM2LTcuMjUsMi4zLTcuMjUsMi4wN3MyLjE5LTUuNDgsNC44Ny0xMS42OWM1Ljc5LTEzLjQzLDQuODctMTIuNzgsMzAuMzUtMjEuMjMsMTcuMzUtNS43NiwzNy4yNy0xMC4yNCw1OC43OC0xMy4yMywxNy41My0yLjQzLDYwLjQ3LTIuNDMsNzgsMCwyMS41MSwyLjk5LDQxLjQzLDcuNDcsNTguNzgsMTMuMjMsMjUuNDgsOC40NSwyNC41Niw3LjgsMzAuMzUsMjEuMjMsMi42OCw2LjIxLDQuODcsMTEuNDcsNC44NywxMS42OXMtMy4yNi0uNzEtNy4yNS0yLjA3Wm02LjA0LTU1LjUzYy0zLjI3LDcuNS02LjE4LDE0LjE2LTYuNDUsMTQuODEtLjM2Ljg1LTEuNy42Ni00Ljg3LS43LTIuNC0xLjAzLTExLjI1LTQuMS0xOS42Ny02LjgyLTY2LjE4LTIxLjQyLTEzNS40Mi0yMS40Mi0yMDEuNiwwaDBjLTguNDIsMi43Mi0xNy4yNyw1Ljc5LTE5LjY3LDYuODItMy4xNywxLjM2LTQuNTEsMS41NS00Ljg3LjctLjI3LS42NS0zLjE4LTcuMzEtNi40NS0xNC44MWwtNS45NS0xMy42MiwzLjYyLTEuMTZjMjkuMjgtOS4zNiw1MS43OS0xNC42Niw3Ni42Mi0xOC4wMiw2NS44NC04LjkzLDEyNC42NS0zLjQsMTkxLjYyLDE4LjAybDMuNjIsMS4xNi01Ljk1LDEzLjYyWm0xNS4zMS0yOS42MmMtLjM5LjQyLTQuMDYtLjM5LTguMTYtMS44LTkwLjE3LTMxLjAxLTE4Ny43MS0zMS4wMi0yNzcuODctLjAxLTQuMDgsMS40MS03LjQ3LDIuNTYtNy41NCwyLjU2LS4zMiwwLTI3LjA2LTMzLjE5LTI3LjIzLTMzLjgtLjExLS4zOSwzLTMuMjEsNi45MS02LjI4bDcuMTEtNS41Nyw1LjU5LjkyYzE3LjM0LDIuODUsNDIuODUtMi43NSw2MS4zOC0xMy40OGw2Ljc5LTMuOTMsNy43MSwyLjUzYzExLjMsMy43MSwyMC4zMSw0Ljk3LDMwLjY2LDQuMjksMTQuODYtLjk4LDI5LjU1LTUuOTksNDIuMy0xNC40MWw1LjI1LTMuNDcsNS4yNSwzLjQ3YzIyLjUyLDE0Ljg4LDQ3Ljc5LDE4LjM4LDcyLjk2LDEwLjEybDcuNzEtMi41Myw2Ljc5LDMuOTNjMTguNTMsMTAuNzMsNDQuMDQsMTYuMzMsNjEuMzgsMTMuNDhsNS41OS0uOTIsNy4xMSw1LjU3YzMuOTEsMy4wNyw3LjEyLDUuOCw3LjE0LDYuMDguMDIuNC0yNC40LDMwLjY4LTI2LjgzLDMzLjI1Wm00MC44NC0xMTUuNzVjLTQuNCwzNS4xNC04LjEsNjMuOTktOC4yMyw2NC4xMi0uMTIuMTItMy4zNC0yLjMxLTcuMTYtNS40MS03Ljc0LTYuMjgtNi43NC02LjA5LTI0LjQ3LTQuNzEtOC43OS42OS0xMC4zMy42LTkuODctLjU5LDEuNTItMy44Nyw1Ny4xOC0xMTcuODUsNTcuNDQtMTE3LjYuMTYuMTYtMy4zMSwyOS4wNC03LjcxLDY0LjE5Wm0zMi4wNC0xMDQuMjZjLTEuOTEuOTctNS41LDEuNzUtNy45OCwxLjc1LTkuNTMsMC0xNi02LjI3LTE2LTE1LjQ5czYuNDctMTUuNSwxNi0xNS41LDE2LDYuMjcsMTYsMTUuNWMwLDYuMjctMi44NCwxMS4xNC04LjAyLDEzLjc0WiIvPiYjeGE7ICA8L2c+JiN4YTs8L3N2Zz4=;" vertex="1" parent="1">
          <mxGeometry x="415" y="216.25" width="40" height="37.5" as="geometry" />
        </mxCell>
        <mxCell id="0axwFl1xxEk5szE2pngX-86" value="" style="shape=image;imageAspect=0;aspect=fixed;verticalLabelPosition=bottom;verticalAlign=top;image=data:image/svg+xml,PHN2ZyB4bWxucz0iaHR0cDovL3d3dy53My5vcmcvMjAwMC9zdmciIHZpZXdCb3g9IjAgMCA0OTEuNTkgNDYyLjEiIGRhdGEtbmFtZT0iTGF5ZXIgMiIgaWQ9IkxheWVyXzIiPiYjeGE7ICA8ZyBpZD0ic3ZnMjQ0MyI+JiN4YTsgICAgPHBhdGggZD0ibTQ4Ny44NCw3OC4wOWMtNS43MS0xMS42MS0xNi4xOC0xNy44Mi0zMC4wNC0xNy44MnMtMjQuMzMsNi4yMS0zMC4wNCwxNy44MmMtNi42MywxMy40Ni00LjY3LDI1LjY1LDYuNDMsNDAuMDguNTguNzUtOS4yNSwyMS45OS0yNy45OSw2MC41MmwtMjguODgsNTkuMzctNC4yLTcyLjk1Yy0yLjMtNDAuMTItNC4yMi03NC40MS00LjI1LTc2LjE4LS4wNi0yLjc1LjQ5LTMuNTIsMy42OC01LjE3LDYuNzMtMy40NywxMi4wMy04LjksMTUuNDYtMTUuODgsMi44NC01Ljc3LDMuMjktNy43MiwzLjI5LTE0LjIzcy0uNDUtOC40Ni0zLjI5LTE0LjIzYy0zLjc2LTcuNjMtOS4wNi0xMi43Ni0xNy4yMS0xNi42NC03Ljc5LTMuNzEtMTguMjEtMy43MS0yNiwwLTE4LjIzLDguNjgtMjUuNjEsMjguMDMtMTcuMjEsNDUuMSwxLjk0LDMuOTMsNC45Niw4LjExLDcuMzMsMTAuMTRsNC4wNCwzLjQ1LTI0LjgzLDcyLjA3Yy0xMy42NiwzOS42NC0yNS4wOCw3Mi4wOC0yNS4zNyw3Mi4wOS0uMy4wMS02Ljg2LTM2LjMyLTE0LjU3LTgwLjcybC0xNC4wMi04MC43NCw0LjI5LTIuODRjOS41Ny02LjM0LDE0LjgyLTE2LjE1LDE0LjgzLTI3LjcxLjAxLTYuNDktLjQ0LTguNDQtMy4yOC0xNC4yMS0zLjc2LTcuNjMtOS4wNi0xMi43Ni0xNy4yMS0xNi42NC03Ljc5LTMuNzEtMTguMjEtMy43MS0yNiwwLTEzLjA4LDYuMjMtMjAuNTEsMTcuNC0yMC40OSwzMC44NS4wMSwxMS41NSw1LjI2LDIxLjM3LDE0LjgzLDI3LjcxbDQuMjksMi44NC0xNC4wMiw4MC43NGMtNy43MSw0NC40LTE0LjI3LDgwLjczLTE0LjU3LDgwLjcyLS4yOS0uMDEtMTEuNzEtMzIuNDUtMjUuMzctNzIuMDlsLTI0LjgzLTcyLjA3LDQuMDQtMy40NWMyLjM3LTIuMDMsNS4zOS02LjIxLDcuMzMtMTAuMTQsMi44NC01Ljc3LDMuMjktNy43MiwzLjI5LTE0LjIzcy0uNDUtOC40Ni0zLjI5LTE0LjIzYy0xLjk1LTMuOTYtNS4wMS04LjE4LTcuNS0xMC4zNS0xMC41OC05LjIyLTI0LjQzLTExLjY2LTM1LjcxLTYuMjktMTguMjMsOC42OC0yNS42MSwyOC4wMy0xNy4yMSw0NS4xLDMuNDMsNi45Nyw4LjczLDEyLjQsMTUuNDYsMTUuODgsMy4xOSwxLjY1LDMuNzQsMi40MiwzLjY4LDUuMTctLjAzLDEuNzctMS45NSwzNi4wNi00LjI1LDc2LjE4bC00LjIsNzIuOTUtMjguODgtNTkuMzdjLTE4Ljc0LTM4LjUzLTI4LjU3LTU5Ljc3LTI3Ljk5LTYwLjUyLDExLjEtMTQuNDMsMTMuMDYtMjYuNjIsNi40My00MC4wOC01LjcyLTExLjYxLTE2LjE4LTE3LjgyLTMwLjA0LTE3Ljgycy0yNC4zMyw2LjIxLTMwLjA0LDE3LjgyYy01LjU4LDExLjM0LTQuOTMsMjIuOTQsMS45LDMzLjY5LDMuODcsNi4wOCw4Ljk0LDkuODIsMTcuMDIsMTIuNTRsNi42MSwyLjIyLDEwLjU3LDg0LjQ4YzUuODEsNDYuNDYsMTEuMDMsODUuMDgsMTEuNTksODUuODFzOS4yMywxMS4zNywxOS4yNiwyMy42NWwxOC4yNCwyMi4zMyw4LjkyLDIwLjQ5LDguOTIsMjAuNDgtOS40OSwyMS43OWMtNS4yMiwxMS45OS05LjQ5LDIyLjkyLTkuNDksMjQuMzEsMCw0LjA5LDMuMjQsNy4wNSwxMy42NSwxMi40OCwyMS4zMiwxMS4xLDQ5LjE3LDE4LjA3LDc4LjM1LDE5LjZoMGMzLjAzLjE2LDM1Ljg4LjIsNzMsLjA5LDU0LjQ1LS4xNSw2OS41NC0uNDksNzguMDYtMS43MiwyMi42OC0zLjI4LDQyLjc3LTkuMzcsNTkuMjktMTcuOTcsMTAuNDEtNS40MywxMy42NS04LjM5LDEzLjY1LTEyLjQ4LDAtMS4zOS00LjI3LTEyLjMyLTkuNDktMjQuMzFsLTkuNDktMjEuNzksOC45Mi0yMC40OCw4LjkyLTIwLjQ5LDE4LjI0LTIyLjMzYzEwLjAzLTEyLjI4LDE4LjctMjIuOTIsMTkuMjYtMjMuNjUuNTYtLjczLDUuNzctMzkuMzUsMTEuNTktODUuODFsMTAuNTctODQuNDgsNi42MS0yLjIyYzguMDgtMi43MiwxMy4xNS02LjQ2LDE3LjAyLTEyLjU0LDYuODItMTAuNzUsNy40OC0yMi4zNSwxLjg5LTMzLjY5Wm0tMTIxLjk2LTM4LjE2YzUuMTgsMy40OSw3LjkyLDguMjQsNy45MiwxMy43M3MtMi43NCwxMC4yMy03LjkyLDEzLjczYy05LjgxLDYuNjEtMjQuMDgtMS41Mi0yNC4wOC0xMy43M3MxNC4yNy0yMC4zNCwyNC4wOC0xMy43M1ptLTY3LjksMjEzLjY0Yy4yOC0uNzgsMTIuNC0zNS45LDI2LjkyLTc4LjA2LDE1LjMxLTQ0LjQ1LDI2LjUxLTc1LjUzLDI2LjY1LTc0LC4xNCwxLjQ2LDIuMDQsMzQuODIsNC4yMiw3NC4xNSwyLjE4LDM5LjMyLDQuMjMsNzQuNTMsNC41Niw3OC4yNS4zMiwzLjcxLjIzLDYuNzMtLjIyLDYuNzItMS41NS0uMDYtMTYuODQtOC40OS0yMC41Ni0xMS4zMy00LjQ0LTMuNDEtNi4yNy0zLjI5LTE4Ljc4LDEuMjItOS44MSwzLjU0LTIzLjY1LDUuMzktMjIuNzksMy4wNVpNMjI5LjgsMzMuNjVjMC01LjQ5LDIuNzQtMTAuMjMsNy45Mi0xMy43Myw5LjgxLTYuNjEsMjQuMDgsMS41MiwyNC4wOCwxMy43MywwLDUuNDktMi43NCwxMC4yMy03LjkyLDEzLjczLTkuODEsNi42MS0yNC4wOC0xLjUyLTI0LjA4LTEzLjczWm0tMTIuNzUsMjE1Ljc1Yy4yNS0uNjksNi43MS0zNy4zNiwxNC4zNS04MS41LDcuNjUtNDQuMTQsMTQuMTItODAuMjUsMTQuNC04MC4yNS41NywwLDI4LjksMTYyLjMsMjguNDMsMTYyLjg1LS43LjgyLTE0Ljg1LTcuNjItMTkuMy0xMS41Mi03LjgtNi44Mi0xMC4xNi02LjczLTE5LjEzLjc0LTIuNDcsMi4wNi03LjQ2LDUuMzYtMTEuMDgsNy4zNC03LjEyLDMuODgtOC4zOCw0LjI2LTcuNjcsMi4zNFptLTUwLjM1LTczLjljMTQuNTIsNDIuMTYsMjYuNjQsNzcuMjgsMjYuOTIsNzguMDYuODYsMi4zNC0xMi45OC40OS0yMi43OS0zLjA1LTEyLjg4LTQuNjQtMTQuMTQtNC42OC0xOS43NS0uNTktMi42MywxLjkyLTguMDMsNS4xMS0xMi4wMSw3LjExaDBjLTMuOTcsMS45OS03LjQ4LDMuNjItNy44MSwzLjYycy0uMzEtMy4wNCwwLTYuNzVjLjMzLTMuNzIsMi4zOC0zOC45Myw0LjU2LTc4LjI1LDIuMTgtMzkuMzMsNC4wOC03Mi42OSw0LjIyLTc0LjE1LjE0LTEuNTMsMTEuMzQsMjkuNTUsMjYuNjUsNzRabS00OC45LTEyMS44NWMwLTEyLjIxLDE0LjI3LTIwLjM0LDI0LjA4LTEzLjczLDEwLjY0LDcuMTcsMTAuNjQsMjAuMjgsMCwyNy40NS05LjgxLDYuNjEtMjQuMDgtMS41Mi0yNC4wOC0xMy43M1ptLTc2LjAyLDUzLjI0Yy0xLjkxLjk3LTUuNTEsMS43NS03Ljk4LDEuNzVzLTYuMDctLjc4LTcuOTgtMS43NWMtMTAuODItNS40My0xMC44Mi0yMi4wNiwwLTI3LjQ5LDQuNDUtMi4yNCwxMS41MS0yLjI0LDE1Ljk2LDAsMTAuODIsNS40MywxMC44MiwyMi4wNiwwLDI3LjQ5Wm0yNC4wMSwxNjguMDdjMC0uNDUtMy41OS0yOS4zNy03Ljk3LTY0LjI2LTQuMzgtMzQuOS03LjgzLTYzLjU4LTcuNjYtNjMuNzQuMjQtLjI1LDU1Ljg5LDExMy42NCw1Ny4zNiwxMTcuNDQuNjMsMS41OS04LjA0LDEuNjgtMTcuNzQuMTctNS40NC0uODQtNy40NC0uNzktOS40My4yNS0xLjM5LjczLTUuMjMsMy40OS04LjU0LDYuMTQtMy4zMSwyLjY1LTYuMDIsNC40NS02LjAzLDRabTI5OC44OCwxNTkuNDdjLTExLjM3LDMuODgtMjAuMDEsNS44OS0zMy44Nyw3LjktOC40NSwxLjIyLTIzLjY3LDEuNTYtNzgsMS43MS0zNy4xMi4xMS02OS45OC4wNy03My0uMDktMTkuNDEtMS4wMi0zNy43Mi00LjMxLTUyLjg3LTkuNWwtOS4zNi0zLjIxLDYuODYtMi4zM2MxMS4yLTMuNzksMzcuNzktMTAuMDQsNTMuODctMTIuNjYsMjQuOS00LjA2LDM4LjQzLTUuMDgsNjcuNS01LjA4czQyLjYsMS4wMiw2Ny41LDUuMDhjMTYuMDgsMi42Miw0Mi42Nyw4Ljg3LDUzLjg3LDEyLjY2bDYuODYsMi4zMy05LjM2LDMuMTlabTYuODgtMjIuMzhjLTE5LjkzLTYuOC01OC40My0xNC42OS04NS43NS0xNy41Ni0xNi4yOS0xLjcxLTYzLjcxLTEuNzEtODAsMC0xOS42NCwyLjA3LTQwLjk1LDUuODEtNjAuNSwxMC42NC05LjksMi40NS0yMS4yNiw1LjU2LTI1LjI1LDYuOTItMy45OSwxLjM2LTcuMjUsMi4zLTcuMjUsMi4wN3MyLjE5LTUuNDgsNC44Ny0xMS42OWM1Ljc5LTEzLjQzLDQuODctMTIuNzgsMzAuMzUtMjEuMjMsMTcuMzUtNS43NiwzNy4yNy0xMC4yNCw1OC43OC0xMy4yMywxNy41My0yLjQzLDYwLjQ3LTIuNDMsNzgsMCwyMS41MSwyLjk5LDQxLjQzLDcuNDcsNTguNzgsMTMuMjMsMjUuNDgsOC40NSwyNC41Niw3LjgsMzAuMzUsMjEuMjMsMi42OCw2LjIxLDQuODcsMTEuNDcsNC44NywxMS42OXMtMy4yNi0uNzEtNy4yNS0yLjA3Wm02LjA0LTU1LjUzYy0zLjI3LDcuNS02LjE4LDE0LjE2LTYuNDUsMTQuODEtLjM2Ljg1LTEuNy42Ni00Ljg3LS43LTIuNC0xLjAzLTExLjI1LTQuMS0xOS42Ny02LjgyLTY2LjE4LTIxLjQyLTEzNS40Mi0yMS40Mi0yMDEuNiwwaDBjLTguNDIsMi43Mi0xNy4yNyw1Ljc5LTE5LjY3LDYuODItMy4xNywxLjM2LTQuNTEsMS41NS00Ljg3LjctLjI3LS42NS0zLjE4LTcuMzEtNi40NS0xNC44MWwtNS45NS0xMy42MiwzLjYyLTEuMTZjMjkuMjgtOS4zNiw1MS43OS0xNC42Niw3Ni42Mi0xOC4wMiw2NS44NC04LjkzLDEyNC42NS0zLjQsMTkxLjYyLDE4LjAybDMuNjIsMS4xNi01Ljk1LDEzLjYyWm0xNS4zMS0yOS42MmMtLjM5LjQyLTQuMDYtLjM5LTguMTYtMS44LTkwLjE3LTMxLjAxLTE4Ny43MS0zMS4wMi0yNzcuODctLjAxLTQuMDgsMS40MS03LjQ3LDIuNTYtNy41NCwyLjU2LS4zMiwwLTI3LjA2LTMzLjE5LTI3LjIzLTMzLjgtLjExLS4zOSwzLTMuMjEsNi45MS02LjI4bDcuMTEtNS41Nyw1LjU5LjkyYzE3LjM0LDIuODUsNDIuODUtMi43NSw2MS4zOC0xMy40OGw2Ljc5LTMuOTMsNy43MSwyLjUzYzExLjMsMy43MSwyMC4zMSw0Ljk3LDMwLjY2LDQuMjksMTQuODYtLjk4LDI5LjU1LTUuOTksNDIuMy0xNC40MWw1LjI1LTMuNDcsNS4yNSwzLjQ3YzIyLjUyLDE0Ljg4LDQ3Ljc5LDE4LjM4LDcyLjk2LDEwLjEybDcuNzEtMi41Myw2Ljc5LDMuOTNjMTguNTMsMTAuNzMsNDQuMDQsMTYuMzMsNjEuMzgsMTMuNDhsNS41OS0uOTIsNy4xMSw1LjU3YzMuOTEsMy4wNyw3LjEyLDUuOCw3LjE0LDYuMDguMDIuNC0yNC40LDMwLjY4LTI2LjgzLDMzLjI1Wm00MC44NC0xMTUuNzVjLTQuNCwzNS4xNC04LjEsNjMuOTktOC4yMyw2NC4xMi0uMTIuMTItMy4zNC0yLjMxLTcuMTYtNS40MS03Ljc0LTYuMjgtNi43NC02LjA5LTI0LjQ3LTQuNzEtOC43OS42OS0xMC4zMy42LTkuODctLjU5LDEuNTItMy44Nyw1Ny4xOC0xMTcuODUsNTcuNDQtMTE3LjYuMTYuMTYtMy4zMSwyOS4wNC03LjcxLDY0LjE5Wm0zMi4wNC0xMDQuMjZjLTEuOTEuOTctNS41LDEuNzUtNy45OCwxLjc1LTkuNTMsMC0xNi02LjI3LTE2LTE1LjQ5czYuNDctMTUuNSwxNi0xNS41LDE2LDYuMjcsMTYsMTUuNWMwLDYuMjctMi44NCwxMS4xNC04LjAyLDEzLjc0WiIvPiYjeGE7ICA8L2c+JiN4YTs8L3N2Zz4=;" vertex="1" parent="1">
          <mxGeometry x="215" y="266.25" width="40" height="37.5" as="geometry" />
        </mxCell>
        <mxCell id="0axwFl1xxEk5szE2pngX-87" value="" style="shape=image;imageAspect=0;aspect=fixed;verticalLabelPosition=bottom;verticalAlign=top;image=data:image/svg+xml,PHN2ZyB4bWxucz0iaHR0cDovL3d3dy53My5vcmcvMjAwMC9zdmciIHZpZXdCb3g9IjAgMCA0OTEuNTkgNDYyLjEiIGRhdGEtbmFtZT0iTGF5ZXIgMiIgaWQ9IkxheWVyXzIiPiYjeGE7ICA8ZyBpZD0ic3ZnMjQ0MyI+JiN4YTsgICAgPHBhdGggZD0ibTQ4Ny44NCw3OC4wOWMtNS43MS0xMS42MS0xNi4xOC0xNy44Mi0zMC4wNC0xNy44MnMtMjQuMzMsNi4yMS0zMC4wNCwxNy44MmMtNi42MywxMy40Ni00LjY3LDI1LjY1LDYuNDMsNDAuMDguNTguNzUtOS4yNSwyMS45OS0yNy45OSw2MC41MmwtMjguODgsNTkuMzctNC4yLTcyLjk1Yy0yLjMtNDAuMTItNC4yMi03NC40MS00LjI1LTc2LjE4LS4wNi0yLjc1LjQ5LTMuNTIsMy42OC01LjE3LDYuNzMtMy40NywxMi4wMy04LjksMTUuNDYtMTUuODgsMi44NC01Ljc3LDMuMjktNy43MiwzLjI5LTE0LjIzcy0uNDUtOC40Ni0zLjI5LTE0LjIzYy0zLjc2LTcuNjMtOS4wNi0xMi43Ni0xNy4yMS0xNi42NC03Ljc5LTMuNzEtMTguMjEtMy43MS0yNiwwLTE4LjIzLDguNjgtMjUuNjEsMjguMDMtMTcuMjEsNDUuMSwxLjk0LDMuOTMsNC45Niw4LjExLDcuMzMsMTAuMTRsNC4wNCwzLjQ1LTI0LjgzLDcyLjA3Yy0xMy42NiwzOS42NC0yNS4wOCw3Mi4wOC0yNS4zNyw3Mi4wOS0uMy4wMS02Ljg2LTM2LjMyLTE0LjU3LTgwLjcybC0xNC4wMi04MC43NCw0LjI5LTIuODRjOS41Ny02LjM0LDE0LjgyLTE2LjE1LDE0LjgzLTI3LjcxLjAxLTYuNDktLjQ0LTguNDQtMy4yOC0xNC4yMS0zLjc2LTcuNjMtOS4wNi0xMi43Ni0xNy4yMS0xNi42NC03Ljc5LTMuNzEtMTguMjEtMy43MS0yNiwwLTEzLjA4LDYuMjMtMjAuNTEsMTcuNC0yMC40OSwzMC44NS4wMSwxMS41NSw1LjI2LDIxLjM3LDE0LjgzLDI3LjcxbDQuMjksMi44NC0xNC4wMiw4MC43NGMtNy43MSw0NC40LTE0LjI3LDgwLjczLTE0LjU3LDgwLjcyLS4yOS0uMDEtMTEuNzEtMzIuNDUtMjUuMzctNzIuMDlsLTI0LjgzLTcyLjA3LDQuMDQtMy40NWMyLjM3LTIuMDMsNS4zOS02LjIxLDcuMzMtMTAuMTQsMi44NC01Ljc3LDMuMjktNy43MiwzLjI5LTE0LjIzcy0uNDUtOC40Ni0zLjI5LTE0LjIzYy0xLjk1LTMuOTYtNS4wMS04LjE4LTcuNS0xMC4zNS0xMC41OC05LjIyLTI0LjQzLTExLjY2LTM1LjcxLTYuMjktMTguMjMsOC42OC0yNS42MSwyOC4wMy0xNy4yMSw0NS4xLDMuNDMsNi45Nyw4LjczLDEyLjQsMTUuNDYsMTUuODgsMy4xOSwxLjY1LDMuNzQsMi40MiwzLjY4LDUuMTctLjAzLDEuNzctMS45NSwzNi4wNi00LjI1LDc2LjE4bC00LjIsNzIuOTUtMjguODgtNTkuMzdjLTE4Ljc0LTM4LjUzLTI4LjU3LTU5Ljc3LTI3Ljk5LTYwLjUyLDExLjEtMTQuNDMsMTMuMDYtMjYuNjIsNi40My00MC4wOC01LjcyLTExLjYxLTE2LjE4LTE3LjgyLTMwLjA0LTE3Ljgycy0yNC4zMyw2LjIxLTMwLjA0LDE3LjgyYy01LjU4LDExLjM0LTQuOTMsMjIuOTQsMS45LDMzLjY5LDMuODcsNi4wOCw4Ljk0LDkuODIsMTcuMDIsMTIuNTRsNi42MSwyLjIyLDEwLjU3LDg0LjQ4YzUuODEsNDYuNDYsMTEuMDMsODUuMDgsMTEuNTksODUuODFzOS4yMywxMS4zNywxOS4yNiwyMy42NWwxOC4yNCwyMi4zMyw4LjkyLDIwLjQ5LDguOTIsMjAuNDgtOS40OSwyMS43OWMtNS4yMiwxMS45OS05LjQ5LDIyLjkyLTkuNDksMjQuMzEsMCw0LjA5LDMuMjQsNy4wNSwxMy42NSwxMi40OCwyMS4zMiwxMS4xLDQ5LjE3LDE4LjA3LDc4LjM1LDE5LjZoMGMzLjAzLjE2LDM1Ljg4LjIsNzMsLjA5LDU0LjQ1LS4xNSw2OS41NC0uNDksNzguMDYtMS43MiwyMi42OC0zLjI4LDQyLjc3LTkuMzcsNTkuMjktMTcuOTcsMTAuNDEtNS40MywxMy42NS04LjM5LDEzLjY1LTEyLjQ4LDAtMS4zOS00LjI3LTEyLjMyLTkuNDktMjQuMzFsLTkuNDktMjEuNzksOC45Mi0yMC40OCw4LjkyLTIwLjQ5LDE4LjI0LTIyLjMzYzEwLjAzLTEyLjI4LDE4LjctMjIuOTIsMTkuMjYtMjMuNjUuNTYtLjczLDUuNzctMzkuMzUsMTEuNTktODUuODFsMTAuNTctODQuNDgsNi42MS0yLjIyYzguMDgtMi43MiwxMy4xNS02LjQ2LDE3LjAyLTEyLjU0LDYuODItMTAuNzUsNy40OC0yMi4zNSwxLjg5LTMzLjY5Wm0tMTIxLjk2LTM4LjE2YzUuMTgsMy40OSw3LjkyLDguMjQsNy45MiwxMy43M3MtMi43NCwxMC4yMy03LjkyLDEzLjczYy05LjgxLDYuNjEtMjQuMDgtMS41Mi0yNC4wOC0xMy43M3MxNC4yNy0yMC4zNCwyNC4wOC0xMy43M1ptLTY3LjksMjEzLjY0Yy4yOC0uNzgsMTIuNC0zNS45LDI2LjkyLTc4LjA2LDE1LjMxLTQ0LjQ1LDI2LjUxLTc1LjUzLDI2LjY1LTc0LC4xNCwxLjQ2LDIuMDQsMzQuODIsNC4yMiw3NC4xNSwyLjE4LDM5LjMyLDQuMjMsNzQuNTMsNC41Niw3OC4yNS4zMiwzLjcxLjIzLDYuNzMtLjIyLDYuNzItMS41NS0uMDYtMTYuODQtOC40OS0yMC41Ni0xMS4zMy00LjQ0LTMuNDEtNi4yNy0zLjI5LTE4Ljc4LDEuMjItOS44MSwzLjU0LTIzLjY1LDUuMzktMjIuNzksMy4wNVpNMjI5LjgsMzMuNjVjMC01LjQ5LDIuNzQtMTAuMjMsNy45Mi0xMy43Myw5LjgxLTYuNjEsMjQuMDgsMS41MiwyNC4wOCwxMy43MywwLDUuNDktMi43NCwxMC4yMy03LjkyLDEzLjczLTkuODEsNi42MS0yNC4wOC0xLjUyLTI0LjA4LTEzLjczWm0tMTIuNzUsMjE1Ljc1Yy4yNS0uNjksNi43MS0zNy4zNiwxNC4zNS04MS41LDcuNjUtNDQuMTQsMTQuMTItODAuMjUsMTQuNC04MC4yNS41NywwLDI4LjksMTYyLjMsMjguNDMsMTYyLjg1LS43LjgyLTE0Ljg1LTcuNjItMTkuMy0xMS41Mi03LjgtNi44Mi0xMC4xNi02LjczLTE5LjEzLjc0LTIuNDcsMi4wNi03LjQ2LDUuMzYtMTEuMDgsNy4zNC03LjEyLDMuODgtOC4zOCw0LjI2LTcuNjcsMi4zNFptLTUwLjM1LTczLjljMTQuNTIsNDIuMTYsMjYuNjQsNzcuMjgsMjYuOTIsNzguMDYuODYsMi4zNC0xMi45OC40OS0yMi43OS0zLjA1LTEyLjg4LTQuNjQtMTQuMTQtNC42OC0xOS43NS0uNTktMi42MywxLjkyLTguMDMsNS4xMS0xMi4wMSw3LjExaDBjLTMuOTcsMS45OS03LjQ4LDMuNjItNy44MSwzLjYycy0uMzEtMy4wNCwwLTYuNzVjLjMzLTMuNzIsMi4zOC0zOC45Myw0LjU2LTc4LjI1LDIuMTgtMzkuMzMsNC4wOC03Mi42OSw0LjIyLTc0LjE1LjE0LTEuNTMsMTEuMzQsMjkuNTUsMjYuNjUsNzRabS00OC45LTEyMS44NWMwLTEyLjIxLDE0LjI3LTIwLjM0LDI0LjA4LTEzLjczLDEwLjY0LDcuMTcsMTAuNjQsMjAuMjgsMCwyNy40NS05LjgxLDYuNjEtMjQuMDgtMS41Mi0yNC4wOC0xMy43M1ptLTc2LjAyLDUzLjI0Yy0xLjkxLjk3LTUuNTEsMS43NS03Ljk4LDEuNzVzLTYuMDctLjc4LTcuOTgtMS43NWMtMTAuODItNS40My0xMC44Mi0yMi4wNiwwLTI3LjQ5LDQuNDUtMi4yNCwxMS41MS0yLjI0LDE1Ljk2LDAsMTAuODIsNS40MywxMC44MiwyMi4wNiwwLDI3LjQ5Wm0yNC4wMSwxNjguMDdjMC0uNDUtMy41OS0yOS4zNy03Ljk3LTY0LjI2LTQuMzgtMzQuOS03LjgzLTYzLjU4LTcuNjYtNjMuNzQuMjQtLjI1LDU1Ljg5LDExMy42NCw1Ny4zNiwxMTcuNDQuNjMsMS41OS04LjA0LDEuNjgtMTcuNzQuMTctNS40NC0uODQtNy40NC0uNzktOS40My4yNS0xLjM5LjczLTUuMjMsMy40OS04LjU0LDYuMTQtMy4zMSwyLjY1LTYuMDIsNC40NS02LjAzLDRabTI5OC44OCwxNTkuNDdjLTExLjM3LDMuODgtMjAuMDEsNS44OS0zMy44Nyw3LjktOC40NSwxLjIyLTIzLjY3LDEuNTYtNzgsMS43MS0zNy4xMi4xMS02OS45OC4wNy03My0uMDktMTkuNDEtMS4wMi0zNy43Mi00LjMxLTUyLjg3LTkuNWwtOS4zNi0zLjIxLDYuODYtMi4zM2MxMS4yLTMuNzksMzcuNzktMTAuMDQsNTMuODctMTIuNjYsMjQuOS00LjA2LDM4LjQzLTUuMDgsNjcuNS01LjA4czQyLjYsMS4wMiw2Ny41LDUuMDhjMTYuMDgsMi42Miw0Mi42Nyw4Ljg3LDUzLjg3LDEyLjY2bDYuODYsMi4zMy05LjM2LDMuMTlabTYuODgtMjIuMzhjLTE5LjkzLTYuOC01OC40My0xNC42OS04NS43NS0xNy41Ni0xNi4yOS0xLjcxLTYzLjcxLTEuNzEtODAsMC0xOS42NCwyLjA3LTQwLjk1LDUuODEtNjAuNSwxMC42NC05LjksMi40NS0yMS4yNiw1LjU2LTI1LjI1LDYuOTItMy45OSwxLjM2LTcuMjUsMi4zLTcuMjUsMi4wN3MyLjE5LTUuNDgsNC44Ny0xMS42OWM1Ljc5LTEzLjQzLDQuODctMTIuNzgsMzAuMzUtMjEuMjMsMTcuMzUtNS43NiwzNy4yNy0xMC4yNCw1OC43OC0xMy4yMywxNy41My0yLjQzLDYwLjQ3LTIuNDMsNzgsMCwyMS41MSwyLjk5LDQxLjQzLDcuNDcsNTguNzgsMTMuMjMsMjUuNDgsOC40NSwyNC41Niw3LjgsMzAuMzUsMjEuMjMsMi42OCw2LjIxLDQuODcsMTEuNDcsNC44NywxMS42OXMtMy4yNi0uNzEtNy4yNS0yLjA3Wm02LjA0LTU1LjUzYy0zLjI3LDcuNS02LjE4LDE0LjE2LTYuNDUsMTQuODEtLjM2Ljg1LTEuNy42Ni00Ljg3LS43LTIuNC0xLjAzLTExLjI1LTQuMS0xOS42Ny02LjgyLTY2LjE4LTIxLjQyLTEzNS40Mi0yMS40Mi0yMDEuNiwwaDBjLTguNDIsMi43Mi0xNy4yNyw1Ljc5LTE5LjY3LDYuODItMy4xNywxLjM2LTQuNTEsMS41NS00Ljg3LjctLjI3LS42NS0zLjE4LTcuMzEtNi40NS0xNC44MWwtNS45NS0xMy42MiwzLjYyLTEuMTZjMjkuMjgtOS4zNiw1MS43OS0xNC42Niw3Ni42Mi0xOC4wMiw2NS44NC04LjkzLDEyNC42NS0zLjQsMTkxLjYyLDE4LjAybDMuNjIsMS4xNi01Ljk1LDEzLjYyWm0xNS4zMS0yOS42MmMtLjM5LjQyLTQuMDYtLjM5LTguMTYtMS44LTkwLjE3LTMxLjAxLTE4Ny43MS0zMS4wMi0yNzcuODctLjAxLTQuMDgsMS40MS03LjQ3LDIuNTYtNy41NCwyLjU2LS4zMiwwLTI3LjA2LTMzLjE5LTI3LjIzLTMzLjgtLjExLS4zOSwzLTMuMjEsNi45MS02LjI4bDcuMTEtNS41Nyw1LjU5LjkyYzE3LjM0LDIuODUsNDIuODUtMi43NSw2MS4zOC0xMy40OGw2Ljc5LTMuOTMsNy43MSwyLjUzYzExLjMsMy43MSwyMC4zMSw0Ljk3LDMwLjY2LDQuMjksMTQuODYtLjk4LDI5LjU1LTUuOTksNDIuMy0xNC40MWw1LjI1LTMuNDcsNS4yNSwzLjQ3YzIyLjUyLDE0Ljg4LDQ3Ljc5LDE4LjM4LDcyLjk2LDEwLjEybDcuNzEtMi41Myw2Ljc5LDMuOTNjMTguNTMsMTAuNzMsNDQuMDQsMTYuMzMsNjEuMzgsMTMuNDhsNS41OS0uOTIsNy4xMSw1LjU3YzMuOTEsMy4wNyw3LjEyLDUuOCw3LjE0LDYuMDguMDIuNC0yNC40LDMwLjY4LTI2LjgzLDMzLjI1Wm00MC44NC0xMTUuNzVjLTQuNCwzNS4xNC04LjEsNjMuOTktOC4yMyw2NC4xMi0uMTIuMTItMy4zNC0yLjMxLTcuMTYtNS40MS03Ljc0LTYuMjgtNi43NC02LjA5LTI0LjQ3LTQuNzEtOC43OS42OS0xMC4zMy42LTkuODctLjU5LDEuNTItMy44Nyw1Ny4xOC0xMTcuODUsNTcuNDQtMTE3LjYuMTYuMTYtMy4zMSwyOS4wNC03LjcxLDY0LjE5Wm0zMi4wNC0xMDQuMjZjLTEuOTEuOTctNS41LDEuNzUtNy45OCwxLjc1LTkuNTMsMC0xNi02LjI3LTE2LTE1LjQ5czYuNDctMTUuNSwxNi0xNS41LDE2LDYuMjcsMTYsMTUuNWMwLDYuMjctMi44NCwxMS4xNC04LjAyLDEzLjc0WiIvPiYjeGE7ICA8L2c+JiN4YTs8L3N2Zz4=;" vertex="1" parent="1">
          <mxGeometry x="465" y="316.25" width="40" height="37.5" as="geometry" />
        </mxCell>
        <mxCell id="0axwFl1xxEk5szE2pngX-88" value="" style="shape=image;imageAspect=0;aspect=fixed;verticalLabelPosition=bottom;verticalAlign=top;image=data:image/svg+xml,PHN2ZyB4bWxucz0iaHR0cDovL3d3dy53My5vcmcvMjAwMC9zdmciIHZpZXdCb3g9IjAgMCA0OTEuNTkgNDYyLjEiIGRhdGEtbmFtZT0iTGF5ZXIgMiIgaWQ9IkxheWVyXzIiPiYjeGE7ICA8ZyBpZD0ic3ZnMjQ0MyI+JiN4YTsgICAgPHBhdGggZD0ibTQ4Ny44NCw3OC4wOWMtNS43MS0xMS42MS0xNi4xOC0xNy44Mi0zMC4wNC0xNy44MnMtMjQuMzMsNi4yMS0zMC4wNCwxNy44MmMtNi42MywxMy40Ni00LjY3LDI1LjY1LDYuNDMsNDAuMDguNTguNzUtOS4yNSwyMS45OS0yNy45OSw2MC41MmwtMjguODgsNTkuMzctNC4yLTcyLjk1Yy0yLjMtNDAuMTItNC4yMi03NC40MS00LjI1LTc2LjE4LS4wNi0yLjc1LjQ5LTMuNTIsMy42OC01LjE3LDYuNzMtMy40NywxMi4wMy04LjksMTUuNDYtMTUuODgsMi44NC01Ljc3LDMuMjktNy43MiwzLjI5LTE0LjIzcy0uNDUtOC40Ni0zLjI5LTE0LjIzYy0zLjc2LTcuNjMtOS4wNi0xMi43Ni0xNy4yMS0xNi42NC03Ljc5LTMuNzEtMTguMjEtMy43MS0yNiwwLTE4LjIzLDguNjgtMjUuNjEsMjguMDMtMTcuMjEsNDUuMSwxLjk0LDMuOTMsNC45Niw4LjExLDcuMzMsMTAuMTRsNC4wNCwzLjQ1LTI0LjgzLDcyLjA3Yy0xMy42NiwzOS42NC0yNS4wOCw3Mi4wOC0yNS4zNyw3Mi4wOS0uMy4wMS02Ljg2LTM2LjMyLTE0LjU3LTgwLjcybC0xNC4wMi04MC43NCw0LjI5LTIuODRjOS41Ny02LjM0LDE0LjgyLTE2LjE1LDE0LjgzLTI3LjcxLjAxLTYuNDktLjQ0LTguNDQtMy4yOC0xNC4yMS0zLjc2LTcuNjMtOS4wNi0xMi43Ni0xNy4yMS0xNi42NC03Ljc5LTMuNzEtMTguMjEtMy43MS0yNiwwLTEzLjA4LDYuMjMtMjAuNTEsMTcuNC0yMC40OSwzMC44NS4wMSwxMS41NSw1LjI2LDIxLjM3LDE0LjgzLDI3LjcxbDQuMjksMi44NC0xNC4wMiw4MC43NGMtNy43MSw0NC40LTE0LjI3LDgwLjczLTE0LjU3LDgwLjcyLS4yOS0uMDEtMTEuNzEtMzIuNDUtMjUuMzctNzIuMDlsLTI0LjgzLTcyLjA3LDQuMDQtMy40NWMyLjM3LTIuMDMsNS4zOS02LjIxLDcuMzMtMTAuMTQsMi44NC01Ljc3LDMuMjktNy43MiwzLjI5LTE0LjIzcy0uNDUtOC40Ni0zLjI5LTE0LjIzYy0xLjk1LTMuOTYtNS4wMS04LjE4LTcuNS0xMC4zNS0xMC41OC05LjIyLTI0LjQzLTExLjY2LTM1LjcxLTYuMjktMTguMjMsOC42OC0yNS42MSwyOC4wMy0xNy4yMSw0NS4xLDMuNDMsNi45Nyw4LjczLDEyLjQsMTUuNDYsMTUuODgsMy4xOSwxLjY1LDMuNzQsMi40MiwzLjY4LDUuMTctLjAzLDEuNzctMS45NSwzNi4wNi00LjI1LDc2LjE4bC00LjIsNzIuOTUtMjguODgtNTkuMzdjLTE4Ljc0LTM4LjUzLTI4LjU3LTU5Ljc3LTI3Ljk5LTYwLjUyLDExLjEtMTQuNDMsMTMuMDYtMjYuNjIsNi40My00MC4wOC01LjcyLTExLjYxLTE2LjE4LTE3LjgyLTMwLjA0LTE3Ljgycy0yNC4zMyw2LjIxLTMwLjA0LDE3LjgyYy01LjU4LDExLjM0LTQuOTMsMjIuOTQsMS45LDMzLjY5LDMuODcsNi4wOCw4Ljk0LDkuODIsMTcuMDIsMTIuNTRsNi42MSwyLjIyLDEwLjU3LDg0LjQ4YzUuODEsNDYuNDYsMTEuMDMsODUuMDgsMTEuNTksODUuODFzOS4yMywxMS4zNywxOS4yNiwyMy42NWwxOC4yNCwyMi4zMyw4LjkyLDIwLjQ5LDguOTIsMjAuNDgtOS40OSwyMS43OWMtNS4yMiwxMS45OS05LjQ5LDIyLjkyLTkuNDksMjQuMzEsMCw0LjA5LDMuMjQsNy4wNSwxMy42NSwxMi40OCwyMS4zMiwxMS4xLDQ5LjE3LDE4LjA3LDc4LjM1LDE5LjZoMGMzLjAzLjE2LDM1Ljg4LjIsNzMsLjA5LDU0LjQ1LS4xNSw2OS41NC0uNDksNzguMDYtMS43MiwyMi42OC0zLjI4LDQyLjc3LTkuMzcsNTkuMjktMTcuOTcsMTAuNDEtNS40MywxMy42NS04LjM5LDEzLjY1LTEyLjQ4LDAtMS4zOS00LjI3LTEyLjMyLTkuNDktMjQuMzFsLTkuNDktMjEuNzksOC45Mi0yMC40OCw4LjkyLTIwLjQ5LDE4LjI0LTIyLjMzYzEwLjAzLTEyLjI4LDE4LjctMjIuOTIsMTkuMjYtMjMuNjUuNTYtLjczLDUuNzctMzkuMzUsMTEuNTktODUuODFsMTAuNTctODQuNDgsNi42MS0yLjIyYzguMDgtMi43MiwxMy4xNS02LjQ2LDE3LjAyLTEyLjU0LDYuODItMTAuNzUsNy40OC0yMi4zNSwxLjg5LTMzLjY5Wm0tMTIxLjk2LTM4LjE2YzUuMTgsMy40OSw3LjkyLDguMjQsNy45MiwxMy43M3MtMi43NCwxMC4yMy03LjkyLDEzLjczYy05LjgxLDYuNjEtMjQuMDgtMS41Mi0yNC4wOC0xMy43M3MxNC4yNy0yMC4zNCwyNC4wOC0xMy43M1ptLTY3LjksMjEzLjY0Yy4yOC0uNzgsMTIuNC0zNS45LDI2LjkyLTc4LjA2LDE1LjMxLTQ0LjQ1LDI2LjUxLTc1LjUzLDI2LjY1LTc0LC4xNCwxLjQ2LDIuMDQsMzQuODIsNC4yMiw3NC4xNSwyLjE4LDM5LjMyLDQuMjMsNzQuNTMsNC41Niw3OC4yNS4zMiwzLjcxLjIzLDYuNzMtLjIyLDYuNzItMS41NS0uMDYtMTYuODQtOC40OS0yMC41Ni0xMS4zMy00LjQ0LTMuNDEtNi4yNy0zLjI5LTE4Ljc4LDEuMjItOS44MSwzLjU0LTIzLjY1LDUuMzktMjIuNzksMy4wNVpNMjI5LjgsMzMuNjVjMC01LjQ5LDIuNzQtMTAuMjMsNy45Mi0xMy43Myw5LjgxLTYuNjEsMjQuMDgsMS41MiwyNC4wOCwxMy43MywwLDUuNDktMi43NCwxMC4yMy03LjkyLDEzLjczLTkuODEsNi42MS0yNC4wOC0xLjUyLTI0LjA4LTEzLjczWm0tMTIuNzUsMjE1Ljc1Yy4yNS0uNjksNi43MS0zNy4zNiwxNC4zNS04MS41LDcuNjUtNDQuMTQsMTQuMTItODAuMjUsMTQuNC04MC4yNS41NywwLDI4LjksMTYyLjMsMjguNDMsMTYyLjg1LS43LjgyLTE0Ljg1LTcuNjItMTkuMy0xMS41Mi03LjgtNi44Mi0xMC4xNi02LjczLTE5LjEzLjc0LTIuNDcsMi4wNi03LjQ2LDUuMzYtMTEuMDgsNy4zNC03LjEyLDMuODgtOC4zOCw0LjI2LTcuNjcsMi4zNFptLTUwLjM1LTczLjljMTQuNTIsNDIuMTYsMjYuNjQsNzcuMjgsMjYuOTIsNzguMDYuODYsMi4zNC0xMi45OC40OS0yMi43OS0zLjA1LTEyLjg4LTQuNjQtMTQuMTQtNC42OC0xOS43NS0uNTktMi42MywxLjkyLTguMDMsNS4xMS0xMi4wMSw3LjExaDBjLTMuOTcsMS45OS03LjQ4LDMuNjItNy44MSwzLjYycy0uMzEtMy4wNCwwLTYuNzVjLjMzLTMuNzIsMi4zOC0zOC45Myw0LjU2LTc4LjI1LDIuMTgtMzkuMzMsNC4wOC03Mi42OSw0LjIyLTc0LjE1LjE0LTEuNTMsMTEuMzQsMjkuNTUsMjYuNjUsNzRabS00OC45LTEyMS44NWMwLTEyLjIxLDE0LjI3LTIwLjM0LDI0LjA4LTEzLjczLDEwLjY0LDcuMTcsMTAuNjQsMjAuMjgsMCwyNy40NS05LjgxLDYuNjEtMjQuMDgtMS41Mi0yNC4wOC0xMy43M1ptLTc2LjAyLDUzLjI0Yy0xLjkxLjk3LTUuNTEsMS43NS03Ljk4LDEuNzVzLTYuMDctLjc4LTcuOTgtMS43NWMtMTAuODItNS40My0xMC44Mi0yMi4wNiwwLTI3LjQ5LDQuNDUtMi4yNCwxMS41MS0yLjI0LDE1Ljk2LDAsMTAuODIsNS40MywxMC44MiwyMi4wNiwwLDI3LjQ5Wm0yNC4wMSwxNjguMDdjMC0uNDUtMy41OS0yOS4zNy03Ljk3LTY0LjI2LTQuMzgtMzQuOS03LjgzLTYzLjU4LTcuNjYtNjMuNzQuMjQtLjI1LDU1Ljg5LDExMy42NCw1Ny4zNiwxMTcuNDQuNjMsMS41OS04LjA0LDEuNjgtMTcuNzQuMTctNS40NC0uODQtNy40NC0uNzktOS40My4yNS0xLjM5LjczLTUuMjMsMy40OS04LjU0LDYuMTQtMy4zMSwyLjY1LTYuMDIsNC40NS02LjAzLDRabTI5OC44OCwxNTkuNDdjLTExLjM3LDMuODgtMjAuMDEsNS44OS0zMy44Nyw3LjktOC40NSwxLjIyLTIzLjY3LDEuNTYtNzgsMS43MS0zNy4xMi4xMS02OS45OC4wNy03My0uMDktMTkuNDEtMS4wMi0zNy43Mi00LjMxLTUyLjg3LTkuNWwtOS4zNi0zLjIxLDYuODYtMi4zM2MxMS4yLTMuNzksMzcuNzktMTAuMDQsNTMuODctMTIuNjYsMjQuOS00LjA2LDM4LjQzLTUuMDgsNjcuNS01LjA4czQyLjYsMS4wMiw2Ny41LDUuMDhjMTYuMDgsMi42Miw0Mi42Nyw4Ljg3LDUzLjg3LDEyLjY2bDYuODYsMi4zMy05LjM2LDMuMTlabTYuODgtMjIuMzhjLTE5LjkzLTYuOC01OC40My0xNC42OS04NS43NS0xNy41Ni0xNi4yOS0xLjcxLTYzLjcxLTEuNzEtODAsMC0xOS42NCwyLjA3LTQwLjk1LDUuODEtNjAuNSwxMC42NC05LjksMi40NS0yMS4yNiw1LjU2LTI1LjI1LDYuOTItMy45OSwxLjM2LTcuMjUsMi4zLTcuMjUsMi4wN3MyLjE5LTUuNDgsNC44Ny0xMS42OWM1Ljc5LTEzLjQzLDQuODctMTIuNzgsMzAuMzUtMjEuMjMsMTcuMzUtNS43NiwzNy4yNy0xMC4yNCw1OC43OC0xMy4yMywxNy41My0yLjQzLDYwLjQ3LTIuNDMsNzgsMCwyMS41MSwyLjk5LDQxLjQzLDcuNDcsNTguNzgsMTMuMjMsMjUuNDgsOC40NSwyNC41Niw3LjgsMzAuMzUsMjEuMjMsMi42OCw2LjIxLDQuODcsMTEuNDcsNC44NywxMS42OXMtMy4yNi0uNzEtNy4yNS0yLjA3Wm02LjA0LTU1LjUzYy0zLjI3LDcuNS02LjE4LDE0LjE2LTYuNDUsMTQuODEtLjM2Ljg1LTEuNy42Ni00Ljg3LS43LTIuNC0xLjAzLTExLjI1LTQuMS0xOS42Ny02LjgyLTY2LjE4LTIxLjQyLTEzNS40Mi0yMS40Mi0yMDEuNiwwaDBjLTguNDIsMi43Mi0xNy4yNyw1Ljc5LTE5LjY3LDYuODItMy4xNywxLjM2LTQuNTEsMS41NS00Ljg3LjctLjI3LS42NS0zLjE4LTcuMzEtNi40NS0xNC44MWwtNS45NS0xMy42MiwzLjYyLTEuMTZjMjkuMjgtOS4zNiw1MS43OS0xNC42Niw3Ni42Mi0xOC4wMiw2NS44NC04LjkzLDEyNC42NS0zLjQsMTkxLjYyLDE4LjAybDMuNjIsMS4xNi01Ljk1LDEzLjYyWm0xNS4zMS0yOS42MmMtLjM5LjQyLTQuMDYtLjM5LTguMTYtMS44LTkwLjE3LTMxLjAxLTE4Ny43MS0zMS4wMi0yNzcuODctLjAxLTQuMDgsMS40MS03LjQ3LDIuNTYtNy41NCwyLjU2LS4zMiwwLTI3LjA2LTMzLjE5LTI3LjIzLTMzLjgtLjExLS4zOSwzLTMuMjEsNi45MS02LjI4bDcuMTEtNS41Nyw1LjU5LjkyYzE3LjM0LDIuODUsNDIuODUtMi43NSw2MS4zOC0xMy40OGw2Ljc5LTMuOTMsNy43MSwyLjUzYzExLjMsMy43MSwyMC4zMSw0Ljk3LDMwLjY2LDQuMjksMTQuODYtLjk4LDI5LjU1LTUuOTksNDIuMy0xNC40MWw1LjI1LTMuNDcsNS4yNSwzLjQ3YzIyLjUyLDE0Ljg4LDQ3Ljc5LDE4LjM4LDcyLjk2LDEwLjEybDcuNzEtMi41Myw2Ljc5LDMuOTNjMTguNTMsMTAuNzMsNDQuMDQsMTYuMzMsNjEuMzgsMTMuNDhsNS41OS0uOTIsNy4xMSw1LjU3YzMuOTEsMy4wNyw3LjEyLDUuOCw3LjE0LDYuMDguMDIuNC0yNC40LDMwLjY4LTI2LjgzLDMzLjI1Wm00MC44NC0xMTUuNzVjLTQuNCwzNS4xNC04LjEsNjMuOTktOC4yMyw2NC4xMi0uMTIuMTItMy4zNC0yLjMxLTcuMTYtNS40MS03Ljc0LTYuMjgtNi43NC02LjA5LTI0LjQ3LTQuNzEtOC43OS42OS0xMC4zMy42LTkuODctLjU5LDEuNTItMy44Nyw1Ny4xOC0xMTcuODUsNTcuNDQtMTE3LjYuMTYuMTYtMy4zMSwyOS4wNC03LjcxLDY0LjE5Wm0zMi4wNC0xMDQuMjZjLTEuOTEuOTctNS41LDEuNzUtNy45OCwxLjc1LTkuNTMsMC0xNi02LjI3LTE2LTE1LjQ5czYuNDctMTUuNSwxNi0xNS41LDE2LDYuMjcsMTYsMTUuNWMwLDYuMjctMi44NCwxMS4xNC04LjAyLDEzLjc0WiIvPiYjeGE7ICA8L2c+JiN4YTs8L3N2Zz4=;" vertex="1" parent="1">
          <mxGeometry x="365" y="366.25" width="40" height="37.5" as="geometry" />
        </mxCell>
      </root>
    </mxGraphModel>
  </diagram>
</mxfile>
